<?xml version="1.0" encoding="utf-8" standalone="no"?>
<!DOCTYPE svg PUBLIC "-//W3C//DTD SVG 1.1//EN"
  "http://www.w3.org/Graphics/SVG/1.1/DTD/svg11.dtd">
<svg height="558pt" version="1.1" viewBox="0 0 689.7875 558" width="689.7875pt" xmlns="http://www.w3.org/2000/svg" xmlns:xlink="http://www.w3.org/1999/xlink">
 <metadata>
  <rdf:RDF xmlns:cc="http://creativecommons.org/ns#" xmlns:dc="http://purl.org/dc/elements/1.1/" xmlns:rdf="http://www.w3.org/1999/02/22-rdf-syntax-ns#">
   <cc:Work>
    <dc:type rdf:resource="http://purl.org/dc/dcmitype/StillImage"/>
    <dc:date>2022-04-27T10:08:15.269057</dc:date>
    <dc:format>image/svg+xml</dc:format>
    <dc:creator>
     <cc:Agent>
      <dc:title>Matplotlib v3.4.1, https://matplotlib.org/</dc:title>
     </cc:Agent>
    </dc:creator>
   </cc:Work>
  </rdf:RDF>
 </metadata>
 <defs>
  <style type="text/css">*{stroke-linecap:butt;stroke-linejoin:round;}</style>
 </defs>
 <g id="figure_1">
  <g id="patch_1">
   <path d="M 0 558 
L 689.7875 558 
L 689.7875 0 
L 0 0 
z
" style="fill:none;"/>
  </g>
  <g id="axes_1">
   <g id="patch_2">
    <path d="M 496.44 279 
C 496.44 254.212304 492.201383 229.606137 483.907707 206.247096 
C 475.614031 182.888054 463.386772 161.118271 447.755442 141.880511 
L 279 279 
L 496.44 279 
z
" style="fill:#1f77b4;"/>
   </g>
   <g id="patch_3">
    <path d="M 447.755442 141.880511 
C 446.455953 140.281205 445.133793 138.700454 443.789366 137.138735 
C 442.444938 135.577016 441.078377 134.034488 439.690098 132.511618 
L 279 279 
L 447.755442 141.880511 
z
" style="fill:#ff7f0e;"/>
   </g>
   <g id="patch_4">
    <path d="M 439.690098 132.511618 
C 423.252889 114.480859 403.897499 99.344612 382.436341 87.738198 
C 360.975184 76.131784 337.712787 68.219896 313.625555 64.334622 
C 289.538322 60.449348 264.968046 60.64582 240.946025 64.915791 
C 216.924005 69.185762 193.791107 77.468642 172.518299 89.41677 
C 151.245491 101.364899 132.134629 116.808734 115.987863 135.100045 
C 99.841097 153.391356 86.887545 174.270594 77.670913 196.861385 
C 68.45428 219.452175 63.105349 243.43396 61.848632 267.800141 
C 60.591915 292.166322 63.445245 316.57115 70.288858 339.990267 
C 77.132471 363.409385 87.869257 385.510483 102.048557 405.365899 
C 116.227857 425.221316 133.64847 442.549309 153.579192 456.622562 
C 173.509913 470.695814 195.667932 481.314632 219.123199 488.033304 
C 242.578466 494.751977 266.998158 497.475169 291.357293 496.088578 
C 315.716429 494.701988 339.669359 489.22529 362.210696 479.888361 
C 384.752033 470.551432 405.561921 457.486761 423.766897 441.242717 
C 441.971873 424.998672 457.313613 405.805754 469.14817 384.469555 
C 480.982727 363.133357 489.142173 339.956632 493.284026 315.912191 
L 279 279 
L 439.690098 132.511618 
z
" style="fill:#2ca02c;"/>
   </g>
   <g id="patch_5">
    <path d="M 493.284026 315.912191 
C 494.246135 310.326922 494.989507 304.706171 495.512441 299.062818 
C 496.035374 293.419466 496.337468 287.757824 496.418031 282.090868 
L 279 279 
L 493.284026 315.912191 
z
" style="fill:#d62728;"/>
   </g>
   <g id="patch_6">
    <path d="M 496.418031 282.090868 
C 496.425354 281.575755 496.430846 281.060618 496.434508 280.545466 
C 496.438169 280.030314 496.44 279.515151 496.44 278.999986 
L 279 279 
L 496.418031 282.090868 
z
" style="fill:#9467bd;"/>
   </g>
   <g id="matplotlib.axis_1"/>
   <g id="matplotlib.axis_2"/>
   <g id="text_1">
    <!-- 10.9% -->
    <g transform="translate(367.252437 240.867007)scale(0.2 -0.2)">
     <defs>
      <path d="M 750 831 
L 1813 831 
L 1813 3847 
L 722 3622 
L 722 4441 
L 1806 4666 
L 2950 4666 
L 2950 831 
L 4013 831 
L 4013 0 
L 750 0 
L 750 831 
z
" id="DejaVuSans-Bold-31" transform="scale(0.015625)"/>
      <path d="M 2944 2338 
Q 2944 3213 2780 3570 
Q 2616 3928 2228 3928 
Q 1841 3928 1675 3570 
Q 1509 3213 1509 2338 
Q 1509 1453 1675 1090 
Q 1841 728 2228 728 
Q 2613 728 2778 1090 
Q 2944 1453 2944 2338 
z
M 4147 2328 
Q 4147 1169 3647 539 
Q 3147 -91 2228 -91 
Q 1306 -91 806 539 
Q 306 1169 306 2328 
Q 306 3491 806 4120 
Q 1306 4750 2228 4750 
Q 3147 4750 3647 4120 
Q 4147 3491 4147 2328 
z
" id="DejaVuSans-Bold-30" transform="scale(0.015625)"/>
      <path d="M 653 1209 
L 1778 1209 
L 1778 0 
L 653 0 
L 653 1209 
z
" id="DejaVuSans-Bold-2e" transform="scale(0.015625)"/>
      <path d="M 641 103 
L 641 966 
Q 928 831 1190 764 
Q 1453 697 1709 697 
Q 2247 697 2547 995 
Q 2847 1294 2900 1881 
Q 2688 1725 2447 1647 
Q 2206 1569 1925 1569 
Q 1209 1569 770 1986 
Q 331 2403 331 3084 
Q 331 3838 820 4291 
Q 1309 4744 2131 4744 
Q 3044 4744 3544 4128 
Q 4044 3513 4044 2388 
Q 4044 1231 3459 570 
Q 2875 -91 1856 -91 
Q 1528 -91 1228 -42 
Q 928 6 641 103 
z
M 2125 2350 
Q 2441 2350 2600 2554 
Q 2759 2759 2759 3169 
Q 2759 3575 2600 3781 
Q 2441 3988 2125 3988 
Q 1809 3988 1650 3781 
Q 1491 3575 1491 3169 
Q 1491 2759 1650 2554 
Q 1809 2350 2125 2350 
z
" id="DejaVuSans-Bold-39" transform="scale(0.015625)"/>
      <path d="M 4959 1925 
Q 4738 1925 4616 1733 
Q 4494 1541 4494 1184 
Q 4494 825 4614 633 
Q 4734 441 4959 441 
Q 5184 441 5303 633 
Q 5422 825 5422 1184 
Q 5422 1541 5301 1733 
Q 5181 1925 4959 1925 
z
M 4959 2450 
Q 5541 2450 5875 2112 
Q 6209 1775 6209 1184 
Q 6209 594 5875 251 
Q 5541 -91 4959 -91 
Q 4378 -91 4042 251 
Q 3706 594 3706 1184 
Q 3706 1772 4042 2111 
Q 4378 2450 4959 2450 
z
M 2094 -91 
L 1403 -91 
L 4319 4750 
L 5013 4750 
L 2094 -91 
z
M 1453 4750 
Q 2034 4750 2367 4411 
Q 2700 4072 2700 3481 
Q 2700 2891 2367 2550 
Q 2034 2209 1453 2209 
Q 872 2209 539 2550 
Q 206 2891 206 3481 
Q 206 4072 539 4411 
Q 872 4750 1453 4750 
z
M 1453 4225 
Q 1228 4225 1106 4031 
Q 984 3838 984 3481 
Q 984 3122 1106 2926 
Q 1228 2731 1453 2731 
Q 1678 2731 1798 2926 
Q 1919 3122 1919 3481 
Q 1919 3838 1797 4031 
Q 1675 4225 1453 4225 
z
" id="DejaVuSans-Bold-25" transform="scale(0.015625)"/>
     </defs>
     <use xlink:href="#DejaVuSans-Bold-31"/>
     <use x="69.580078" xlink:href="#DejaVuSans-Bold-30"/>
     <use x="139.160156" xlink:href="#DejaVuSans-Bold-2e"/>
     <use x="177.148438" xlink:href="#DejaVuSans-Bold-39"/>
     <use x="246.728516" xlink:href="#DejaVuSans-Bold-25"/>
    </g>
   </g>
   <g id="text_2">
    <!-- 0.9% -->
    <g transform="translate(350.139244 199.401991)scale(0.2 -0.2)">
     <use xlink:href="#DejaVuSans-Bold-30"/>
     <use x="69.580078" xlink:href="#DejaVuSans-Bold-2e"/>
     <use x="107.568359" xlink:href="#DejaVuSans-Bold-39"/>
     <use x="177.148438" xlink:href="#DejaVuSans-Bold-25"/>
    </g>
   </g>
   <g id="text_3">
    <!-- 85.5% -->
    <g transform="translate(119.081127 321.11291)scale(0.2 -0.2)">
     <defs>
      <path d="M 2228 2088 
Q 1891 2088 1709 1903 
Q 1528 1719 1528 1375 
Q 1528 1031 1709 848 
Q 1891 666 2228 666 
Q 2563 666 2741 848 
Q 2919 1031 2919 1375 
Q 2919 1722 2741 1905 
Q 2563 2088 2228 2088 
z
M 1350 2484 
Q 925 2613 709 2878 
Q 494 3144 494 3541 
Q 494 4131 934 4440 
Q 1375 4750 2228 4750 
Q 3075 4750 3515 4442 
Q 3956 4134 3956 3541 
Q 3956 3144 3739 2878 
Q 3522 2613 3097 2484 
Q 3572 2353 3814 2058 
Q 4056 1763 4056 1313 
Q 4056 619 3595 264 
Q 3134 -91 2228 -91 
Q 1319 -91 855 264 
Q 391 619 391 1313 
Q 391 1763 633 2058 
Q 875 2353 1350 2484 
z
M 1631 3419 
Q 1631 3141 1786 2991 
Q 1941 2841 2228 2841 
Q 2509 2841 2662 2991 
Q 2816 3141 2816 3419 
Q 2816 3697 2662 3845 
Q 2509 3994 2228 3994 
Q 1941 3994 1786 3844 
Q 1631 3694 1631 3419 
z
" id="DejaVuSans-Bold-38" transform="scale(0.015625)"/>
      <path d="M 678 4666 
L 3669 4666 
L 3669 3781 
L 1638 3781 
L 1638 3059 
Q 1775 3097 1914 3117 
Q 2053 3138 2203 3138 
Q 3056 3138 3531 2711 
Q 4006 2284 4006 1522 
Q 4006 766 3489 337 
Q 2972 -91 2053 -91 
Q 1656 -91 1267 -14 
Q 878 63 494 219 
L 494 1166 
Q 875 947 1217 837 
Q 1559 728 1863 728 
Q 2300 728 2551 942 
Q 2803 1156 2803 1522 
Q 2803 1891 2551 2103 
Q 2300 2316 1863 2316 
Q 1603 2316 1309 2248 
Q 1016 2181 678 2041 
L 678 4666 
z
" id="DejaVuSans-Bold-35" transform="scale(0.015625)"/>
     </defs>
     <use xlink:href="#DejaVuSans-Bold-38"/>
     <use x="69.580078" xlink:href="#DejaVuSans-Bold-35"/>
     <use x="139.160156" xlink:href="#DejaVuSans-Bold-2e"/>
     <use x="177.148438" xlink:href="#DejaVuSans-Bold-35"/>
     <use x="246.728516" xlink:href="#DejaVuSans-Bold-25"/>
    </g>
   </g>
   <g id="text_4">
    <!-- 2.5% -->
    <g transform="translate(381.173089 296.556441)scale(0.2 -0.2)">
     <defs>
      <path d="M 1844 884 
L 3897 884 
L 3897 0 
L 506 0 
L 506 884 
L 2209 2388 
Q 2438 2594 2547 2791 
Q 2656 2988 2656 3200 
Q 2656 3528 2436 3728 
Q 2216 3928 1850 3928 
Q 1569 3928 1234 3808 
Q 900 3688 519 3450 
L 519 4475 
Q 925 4609 1322 4679 
Q 1719 4750 2100 4750 
Q 2938 4750 3402 4381 
Q 3866 4013 3866 3353 
Q 3866 2972 3669 2642 
Q 3472 2313 2841 1759 
L 1844 884 
z
" id="DejaVuSans-Bold-32" transform="scale(0.015625)"/>
     </defs>
     <use xlink:href="#DejaVuSans-Bold-32"/>
     <use x="69.580078" xlink:href="#DejaVuSans-Bold-2e"/>
     <use x="107.568359" xlink:href="#DejaVuSans-Bold-35"/>
     <use x="177.148438" xlink:href="#DejaVuSans-Bold-25"/>
    </g>
   </g>
   <g id="text_5">
    <!-- 0.2% -->
    <g transform="translate(381.72633 285.446029)scale(0.2 -0.2)">
     <use xlink:href="#DejaVuSans-Bold-30"/>
     <use x="69.580078" xlink:href="#DejaVuSans-Bold-2e"/>
     <use x="107.568359" xlink:href="#DejaVuSans-Bold-32"/>
     <use x="177.148438" xlink:href="#DejaVuSans-Bold-25"/>
    </g>
   </g>
   <g id="legend_1">
    <g id="patch_7">
     <path d="M 564.8 355.390625 
L 678.5875 355.390625 
Q 682.5875 355.390625 682.5875 351.390625 
L 682.5875 206.609375 
Q 682.5875 202.609375 678.5875 202.609375 
L 564.8 202.609375 
Q 560.8 202.609375 560.8 206.609375 
L 560.8 351.390625 
Q 560.8 355.390625 564.8 355.390625 
z
" style="fill:#ffffff;opacity:0.8;stroke:#cccccc;stroke-linejoin:miter;"/>
    </g>
    <g id="patch_8">
     <path d="M 568.8 225.80625 
L 608.8 225.80625 
L 608.8 211.80625 
L 568.8 211.80625 
z
" style="fill:#1f77b4;"/>
    </g>
    <g id="text_6">
     <!-- obo -->
     <g transform="translate(624.8 225.80625)scale(0.2 -0.2)">
      <defs>
       <path d="M 1959 3097 
Q 1497 3097 1228 2736 
Q 959 2375 959 1747 
Q 959 1119 1226 758 
Q 1494 397 1959 397 
Q 2419 397 2687 759 
Q 2956 1122 2956 1747 
Q 2956 2369 2687 2733 
Q 2419 3097 1959 3097 
z
M 1959 3584 
Q 2709 3584 3137 3096 
Q 3566 2609 3566 1747 
Q 3566 888 3137 398 
Q 2709 -91 1959 -91 
Q 1206 -91 779 398 
Q 353 888 353 1747 
Q 353 2609 779 3096 
Q 1206 3584 1959 3584 
z
" id="DejaVuSans-6f" transform="scale(0.015625)"/>
       <path d="M 3116 1747 
Q 3116 2381 2855 2742 
Q 2594 3103 2138 3103 
Q 1681 3103 1420 2742 
Q 1159 2381 1159 1747 
Q 1159 1113 1420 752 
Q 1681 391 2138 391 
Q 2594 391 2855 752 
Q 3116 1113 3116 1747 
z
M 1159 2969 
Q 1341 3281 1617 3432 
Q 1894 3584 2278 3584 
Q 2916 3584 3314 3078 
Q 3713 2572 3713 1747 
Q 3713 922 3314 415 
Q 2916 -91 2278 -91 
Q 1894 -91 1617 61 
Q 1341 213 1159 525 
L 1159 0 
L 581 0 
L 581 4863 
L 1159 4863 
L 1159 2969 
z
" id="DejaVuSans-62" transform="scale(0.015625)"/>
      </defs>
      <use xlink:href="#DejaVuSans-6f"/>
      <use x="61.181641" xlink:href="#DejaVuSans-62"/>
      <use x="124.658203" xlink:href="#DejaVuSans-6f"/>
     </g>
    </g>
    <g id="patch_9">
     <path d="M 568.8 255.1625 
L 608.8 255.1625 
L 608.8 241.1625 
L 568.8 241.1625 
z
" style="fill:#ff7f0e;"/>
    </g>
    <g id="text_7">
     <!-- faldo -->
     <g transform="translate(624.8 255.1625)scale(0.2 -0.2)">
      <defs>
       <path d="M 2375 4863 
L 2375 4384 
L 1825 4384 
Q 1516 4384 1395 4259 
Q 1275 4134 1275 3809 
L 1275 3500 
L 2222 3500 
L 2222 3053 
L 1275 3053 
L 1275 0 
L 697 0 
L 697 3053 
L 147 3053 
L 147 3500 
L 697 3500 
L 697 3744 
Q 697 4328 969 4595 
Q 1241 4863 1831 4863 
L 2375 4863 
z
" id="DejaVuSans-66" transform="scale(0.015625)"/>
       <path d="M 2194 1759 
Q 1497 1759 1228 1600 
Q 959 1441 959 1056 
Q 959 750 1161 570 
Q 1363 391 1709 391 
Q 2188 391 2477 730 
Q 2766 1069 2766 1631 
L 2766 1759 
L 2194 1759 
z
M 3341 1997 
L 3341 0 
L 2766 0 
L 2766 531 
Q 2569 213 2275 61 
Q 1981 -91 1556 -91 
Q 1019 -91 701 211 
Q 384 513 384 1019 
Q 384 1609 779 1909 
Q 1175 2209 1959 2209 
L 2766 2209 
L 2766 2266 
Q 2766 2663 2505 2880 
Q 2244 3097 1772 3097 
Q 1472 3097 1187 3025 
Q 903 2953 641 2809 
L 641 3341 
Q 956 3463 1253 3523 
Q 1550 3584 1831 3584 
Q 2591 3584 2966 3190 
Q 3341 2797 3341 1997 
z
" id="DejaVuSans-61" transform="scale(0.015625)"/>
       <path d="M 603 4863 
L 1178 4863 
L 1178 0 
L 603 0 
L 603 4863 
z
" id="DejaVuSans-6c" transform="scale(0.015625)"/>
       <path d="M 2906 2969 
L 2906 4863 
L 3481 4863 
L 3481 0 
L 2906 0 
L 2906 525 
Q 2725 213 2448 61 
Q 2172 -91 1784 -91 
Q 1150 -91 751 415 
Q 353 922 353 1747 
Q 353 2572 751 3078 
Q 1150 3584 1784 3584 
Q 2172 3584 2448 3432 
Q 2725 3281 2906 2969 
z
M 947 1747 
Q 947 1113 1208 752 
Q 1469 391 1925 391 
Q 2381 391 2643 752 
Q 2906 1113 2906 1747 
Q 2906 2381 2643 2742 
Q 2381 3103 1925 3103 
Q 1469 3103 1208 2742 
Q 947 2381 947 1747 
z
" id="DejaVuSans-64" transform="scale(0.015625)"/>
      </defs>
      <use xlink:href="#DejaVuSans-66"/>
      <use x="35.205078" xlink:href="#DejaVuSans-61"/>
      <use x="96.484375" xlink:href="#DejaVuSans-6c"/>
      <use x="124.267578" xlink:href="#DejaVuSans-64"/>
      <use x="187.744141" xlink:href="#DejaVuSans-6f"/>
     </g>
    </g>
    <g id="patch_10">
     <path d="M 568.8 284.51875 
L 608.8 284.51875 
L 608.8 270.51875 
L 568.8 270.51875 
z
" style="fill:#2ca02c;"/>
    </g>
    <g id="text_8">
     <!-- imgt -->
     <g transform="translate(624.8 284.51875)scale(0.2 -0.2)">
      <defs>
       <path d="M 603 3500 
L 1178 3500 
L 1178 0 
L 603 0 
L 603 3500 
z
M 603 4863 
L 1178 4863 
L 1178 4134 
L 603 4134 
L 603 4863 
z
" id="DejaVuSans-69" transform="scale(0.015625)"/>
       <path d="M 3328 2828 
Q 3544 3216 3844 3400 
Q 4144 3584 4550 3584 
Q 5097 3584 5394 3201 
Q 5691 2819 5691 2113 
L 5691 0 
L 5113 0 
L 5113 2094 
Q 5113 2597 4934 2840 
Q 4756 3084 4391 3084 
Q 3944 3084 3684 2787 
Q 3425 2491 3425 1978 
L 3425 0 
L 2847 0 
L 2847 2094 
Q 2847 2600 2669 2842 
Q 2491 3084 2119 3084 
Q 1678 3084 1418 2786 
Q 1159 2488 1159 1978 
L 1159 0 
L 581 0 
L 581 3500 
L 1159 3500 
L 1159 2956 
Q 1356 3278 1631 3431 
Q 1906 3584 2284 3584 
Q 2666 3584 2933 3390 
Q 3200 3197 3328 2828 
z
" id="DejaVuSans-6d" transform="scale(0.015625)"/>
       <path d="M 2906 1791 
Q 2906 2416 2648 2759 
Q 2391 3103 1925 3103 
Q 1463 3103 1205 2759 
Q 947 2416 947 1791 
Q 947 1169 1205 825 
Q 1463 481 1925 481 
Q 2391 481 2648 825 
Q 2906 1169 2906 1791 
z
M 3481 434 
Q 3481 -459 3084 -895 
Q 2688 -1331 1869 -1331 
Q 1566 -1331 1297 -1286 
Q 1028 -1241 775 -1147 
L 775 -588 
Q 1028 -725 1275 -790 
Q 1522 -856 1778 -856 
Q 2344 -856 2625 -561 
Q 2906 -266 2906 331 
L 2906 616 
Q 2728 306 2450 153 
Q 2172 0 1784 0 
Q 1141 0 747 490 
Q 353 981 353 1791 
Q 353 2603 747 3093 
Q 1141 3584 1784 3584 
Q 2172 3584 2450 3431 
Q 2728 3278 2906 2969 
L 2906 3500 
L 3481 3500 
L 3481 434 
z
" id="DejaVuSans-67" transform="scale(0.015625)"/>
       <path d="M 1172 4494 
L 1172 3500 
L 2356 3500 
L 2356 3053 
L 1172 3053 
L 1172 1153 
Q 1172 725 1289 603 
Q 1406 481 1766 481 
L 2356 481 
L 2356 0 
L 1766 0 
Q 1100 0 847 248 
Q 594 497 594 1153 
L 594 3053 
L 172 3053 
L 172 3500 
L 594 3500 
L 594 4494 
L 1172 4494 
z
" id="DejaVuSans-74" transform="scale(0.015625)"/>
      </defs>
      <use xlink:href="#DejaVuSans-69"/>
      <use x="27.783203" xlink:href="#DejaVuSans-6d"/>
      <use x="125.195312" xlink:href="#DejaVuSans-67"/>
      <use x="188.671875" xlink:href="#DejaVuSans-74"/>
     </g>
    </g>
    <g id="patch_11">
     <path d="M 568.8 313.875 
L 608.8 313.875 
L 608.8 299.875 
L 568.8 299.875 
z
" style="fill:#d62728;"/>
    </g>
    <g id="text_9">
     <!-- owl -->
     <g transform="translate(624.8 313.875)scale(0.2 -0.2)">
      <defs>
       <path d="M 269 3500 
L 844 3500 
L 1563 769 
L 2278 3500 
L 2956 3500 
L 3675 769 
L 4391 3500 
L 4966 3500 
L 4050 0 
L 3372 0 
L 2619 2869 
L 1863 0 
L 1184 0 
L 269 3500 
z
" id="DejaVuSans-77" transform="scale(0.015625)"/>
      </defs>
      <use xlink:href="#DejaVuSans-6f"/>
      <use x="61.181641" xlink:href="#DejaVuSans-77"/>
      <use x="142.96875" xlink:href="#DejaVuSans-6c"/>
     </g>
    </g>
    <g id="patch_12">
     <path d="M 568.8 343.23125 
L 608.8 343.23125 
L 608.8 329.23125 
L 568.8 329.23125 
z
" style="fill:#9467bd;"/>
    </g>
    <g id="text_10">
     <!-- bibo -->
     <g transform="translate(624.8 343.23125)scale(0.2 -0.2)">
      <use xlink:href="#DejaVuSans-62"/>
      <use x="63.476562" xlink:href="#DejaVuSans-69"/>
      <use x="91.259766" xlink:href="#DejaVuSans-62"/>
      <use x="154.736328" xlink:href="#DejaVuSans-6f"/>
     </g>
    </g>
   </g>
  </g>
 </g>
</svg>
