<?xml version="1.0" encoding="UTF-8" ?>
<svg xmlns="http://www.w3.org/2000/svg" xmlns:xlink="http://www.w3.org/1999/xlink" width="511pt" height="289pt" viewBox="0.00 0.00 511.11 288.80">
<g id="graph0" class="graph" transform="scale(1 1) rotate(0) translate(4 284.8)">
<title>G</title>
<polygon fill="#ffffff" stroke="transparent" points="-4,4 -4,-284.8 507.1148,-284.8 507.1148,4 -4,4"/>
<!-- :Locus -->
<g id="node1" class="node">
<title>:Locus</title>
<ellipse fill="#ffc996" stroke="#ffc996" cx="319.3965" cy="-262.8" rx="27" ry="18"/>
<text text-anchor="middle" x="319.3965" y="-259.8" font-family="Times,serif" font-size="10.00" fill="#000000">:Locus</text>
</g>
<!-- :Gene -->
<g id="node2" class="node">
<title>:Gene</title>
<ellipse fill="#ffc996" stroke="#ffc996" cx="178.3965" cy="-181.2" rx="27" ry="18"/>
<text text-anchor="middle" x="178.3965" y="-178.2" font-family="Times,serif" font-size="10.00" fill="#000000">:Gene</text>
</g>
<!-- :Locus&#45;&gt;:Gene -->
<g id="edge1" class="edge">
<title>:Locus-&gt;:Gene</title>
<path fill="none" stroke="#046582" d="M297.1626,-252.1812C283.1181,-245.2959 264.6972,-235.9359 248.8565,-226.8 234.2938,-218.4011 218.5459,-208.3106 205.639,-199.7592"/>
<polygon fill="#046582" stroke="#046582" points="207.466,-196.7706 197.2069,-194.1246 203.5768,-202.5908 207.466,-196.7706"/>
<text text-anchor="middle" x="263.1665" y="-219.6" font-family="Times,serif" font-size="8.00" fill="#000000">hasGene</text>
</g>
<!-- obo:SO_0000340 -->
<g id="node3" class="node">
<title>obo:SO_0000340</title>
<ellipse fill="#ffc996" stroke="#ffc996" cx="275.3965" cy="-181.2" rx="52.1" ry="18"/>
<text text-anchor="middle" x="275.3965" y="-178.2" font-family="Times,serif" font-size="10.00" fill="#000000">obo:SO_0000340</text>
</g>
<!-- :Locus&#45;&gt;obo:SO_0000340 -->
<g id="edge2" class="edge">
<title>:Locus-&gt;obo:SO_0000340</title>
<path fill="none" stroke="#046582" d="M302.0183,-249.0188C295.4202,-242.8975 288.4467,-235.1807 284.0629,-226.8 281.3084,-221.5339 279.4217,-215.5174 278.1314,-209.62"/>
<polygon fill="#046582" stroke="#046582" points="281.5088,-208.5997 276.3944,-199.3211 274.6063,-209.764 281.5088,-208.5997"/>
<text text-anchor="middle" x="313.0633" y="-219.6" font-family="Times,serif" font-size="8.00" fill="#000000">obo:RO_0002350</text>
</g>
<!-- obo:NCBITaxon_1 -->
<g id="node4" class="node">
<title>obo:NCBITaxon_1</title>
<ellipse fill="#ffc996" stroke="#ffc996" cx="342.3965" cy="-18" rx="56.105" ry="18"/>
<text text-anchor="middle" x="342.3965" y="-15" font-family="Times,serif" font-size="10.00" fill="#000000">obo:NCBITaxon_1</text>
</g>
<!-- :Locus&#45;&gt;obo:NCBITaxon_1 -->
<g id="edge3" class="edge">
<title>:Locus-&gt;obo:NCBITaxon_1</title>
<path fill="none" stroke="#046582" d="M331.9523,-246.4787C335.7523,-240.5992 339.4358,-233.7052 341.3965,-226.8 359.1668,-164.218 352.5136,-86.7669 346.947,-46.0492"/>
<polygon fill="#046582" stroke="#046582" points="350.3962,-45.4453 345.4989,-36.0503 343.4684,-46.4487 350.3962,-45.4453"/>
<text text-anchor="middle" x="382.0633" y="-138" font-family="Times,serif" font-size="8.00" fill="#000000">obo:RO_0002162</text>
</g>
<!-- :LocusLocationType -->
<g id="node5" class="node">
<title>:LocusLocationType</title>
<ellipse fill="#ffc996" stroke="#ffc996" cx="443.3965" cy="-181.2" rx="59.9373" ry="18"/>
<text text-anchor="middle" x="443.3965" y="-178.2" font-family="Times,serif" font-size="10.00" fill="#000000">:LocusLocationType</text>
</g>
<!-- :Locus&#45;&gt;:LocusLocationType -->
<g id="edge4" class="edge">
<title>:Locus-&gt;:LocusLocationType</title>
<path fill="none" stroke="#046582" d="M338.7715,-250.05C357.7368,-237.5696 387.0156,-218.3023 409.7822,-203.3204"/>
<polygon fill="#046582" stroke="#046582" points="411.7243,-206.2323 418.1538,-197.8113 407.8763,-200.3848 411.7243,-206.2323"/>
<text text-anchor="middle" x="424.0513" y="-219.6" font-family="Times,serif" font-size="8.00" fill="#000000">:hasLocusLocationType</text>
</g>
<!-- obo:SO_0001248 -->
<g id="node6" class="node">
<title>obo:SO_0001248</title>
<ellipse fill="#ffc996" stroke="#ffc996" cx="275.3965" cy="-99.6" rx="52.1" ry="18"/>
<text text-anchor="middle" x="275.3965" y="-96.6" font-family="Times,serif" font-size="10.00" fill="#000000">obo:SO_0001248</text>
</g>
<!-- obo:SO_0000340&#45;&gt;obo:SO_0001248 -->
<g id="edge5" class="edge">
<title>obo:SO_0000340-&gt;obo:SO_0001248</title>
<path fill="none" stroke="#046582" d="M275.3965,-163.0903C275.3965,-152.7371 275.3965,-139.5258 275.3965,-127.8383"/>
<polygon fill="#046582" stroke="#046582" points="278.8966,-127.659 275.3965,-117.6591 271.8966,-127.6591 278.8966,-127.659"/>
<text text-anchor="middle" x="304.0633" y="-138" font-family="Times,serif" font-size="8.00" fill="#000000">obo:RO_0002350</text>
</g>
<!-- obo:NCIT_C25402 -->
<g id="node7" class="node">
<title>obo:NCIT_C25402</title>
<ellipse fill="#ffc996" stroke="#ffc996" cx="149.3965" cy="-99.6" rx="56.2799" ry="18"/>
<text text-anchor="middle" x="149.3965" y="-96.6" font-family="Times,serif" font-size="10.00" fill="#000000">obo:NCIT_C25402</text>
</g>
<!-- obo:SO_0000340&#45;&gt;obo:NCIT_C25402 -->
<g id="edge6" class="edge">
<title>obo:SO_0000340-&gt;obo:NCIT_C25402</title>
<path fill="none" stroke="#046582" d="M245.8247,-166.3721C234.1719,-160.2093 220.8176,-152.7411 209.1757,-145.2 198.6687,-138.394 187.6442,-130.2876 177.9647,-122.8102"/>
<polygon fill="#046582" stroke="#046582" points="179.8807,-119.865 169.8514,-116.4497 175.5619,-125.3739 179.8807,-119.865"/>
<text text-anchor="middle" x="240.5069" y="-138" font-family="Times,serif" font-size="8.00" fill="#000000">obo:ERO_0000405</text>
</g>
<!-- obo:SO_0001248&#45;&gt;obo:NCBITaxon_1 -->
<g id="edge7" class="edge">
<title>obo:SO_0001248-&gt;obo:NCBITaxon_1</title>
<path fill="none" stroke="#046582" d="M275.4933,-81.4095C276.3333,-72.4829 278.5802,-61.9655 284.0629,-54 288.2843,-47.867 293.9264,-42.5816 300.0425,-38.0958"/>
<polygon fill="#046582" stroke="#046582" points="302.1601,-40.8922 308.5878,-32.4698 298.3108,-35.0455 302.1601,-40.8922"/>
<text text-anchor="middle" x="313.0633" y="-56.4" font-family="Times,serif" font-size="8.00" fill="#000000">obo:RO_0002162</text>
</g>
<!-- obo:NCIT_C103167 -->
<g id="node8" class="node">
<title>obo:NCIT_C103167</title>
<ellipse fill="#ffc996" stroke="#ffc996" cx="59.3965" cy="-18" rx="59.2933" ry="18"/>
<text text-anchor="middle" x="59.3965" y="-15" font-family="Times,serif" font-size="10.00" fill="#000000">obo:NCIT_C103167</text>
</g>
<!-- obo:SO_0001248&#45;&gt;obo:NCIT_C103167 -->
<g id="edge8" class="edge">
<title>obo:SO_0001248-&gt;obo:NCIT_C103167</title>
<path fill="none" stroke="#046582" d="M236.9992,-87.1904C216.8325,-80.5069 191.7727,-71.9399 169.6261,-63.6 147.5406,-55.2831 123.276,-45.3352 103.1483,-36.8562"/>
<polygon fill="#046582" stroke="#046582" points="104.495,-33.6257 93.9217,-32.9506 101.7663,-40.0719 104.495,-33.6257"/>
<text text-anchor="middle" x="187.2817" y="-56.4" font-family="Times,serif" font-size="8.00" fill="#000000">:hasOrigin</text>
</g>
<!-- obo:NCIT_C164455 -->
<g id="node9" class="node">
<title>obo:NCIT_C164455</title>
<ellipse fill="#ffc996" stroke="#ffc996" cx="196.3965" cy="-18" rx="59.2933" ry="18"/>
<text text-anchor="middle" x="196.3965" y="-15" font-family="Times,serif" font-size="10.00" fill="#000000">obo:NCIT_C164455</text>
</g>
<!-- obo:SO_0001248&#45;&gt;obo:NCIT_C164455 -->
<g id="edge9" class="edge">
<title>obo:SO_0001248-&gt;obo:NCIT_C164455</title>
<path fill="none" stroke="#046582" d="M241.4028,-85.8789C230.9339,-80.2766 220.1399,-72.8913 212.3997,-63.6 208.1708,-58.5235 205.0293,-52.2552 202.7063,-46.0087"/>
<polygon fill="#046582" stroke="#046582" points="206.021,-44.8813 199.6912,-36.3852 199.3411,-46.9742 206.021,-44.8813"/>
<text text-anchor="middle" x="245.3949" y="-56.4" font-family="Times,serif" font-size="8.00" fill="#000000">obo:SWO_0004000</text>
</g>
</g>
</svg>