<?xml version="1.0" encoding="UTF-8" standalone="no"?>
<!DOCTYPE svg PUBLIC "-//W3C//DTD SVG 1.1//EN"
 "http://www.w3.org/Graphics/SVG/1.1/DTD/svg11.dtd">
<!-- Generated by graphviz version 2.43.0 (0)
 -->
<!-- Title: G Pages: 1 -->
<svg width="696pt" height="206pt"
 viewBox="0.00 0.00 696.10 206.00" xmlns="http://www.w3.org/2000/svg" xmlns:xlink="http://www.w3.org/1999/xlink">
<g id="graph0" class="graph" transform="scale(1 1) rotate(0) translate(4 202)">
<title>G</title>
<polygon fill="white" stroke="transparent" points="-4,4 -4,-202 692.1,-202 692.1,4 -4,4"/>
<!-- obo:NCIT_C13303 -->
<g id="node1" class="node">
<title>obo:NCIT_C13303</title>
<ellipse fill="#ffc996" stroke="#ffc996" cx="316.58" cy="-180" rx="63.65" ry="18"/>
<text text-anchor="middle" x="316.58" y="-177.5" font-family="Times,serif" font-size="10.00">obo:NCIT_C13303</text>
</g>
<!-- obo:NCIT_C41207 -->
<g id="node2" class="node">
<title>obo:NCIT_C41207</title>
<ellipse fill="#ffc996" stroke="#ffc996" cx="63.58" cy="-99" rx="63.65" ry="18"/>
<text text-anchor="middle" x="63.58" y="-96.5" font-family="Times,serif" font-size="10.00">obo:NCIT_C41207</text>
</g>
<!-- obo:NCIT_C13303&#45;&gt;obo:NCIT_C41207 -->
<g id="edge1" class="edge">
<title>obo:NCIT_C13303&#45;&gt;obo:NCIT_C41207</title>
<path fill="none" stroke="#046582" d="M269.86,-167.7C244.47,-161.29 212.63,-152.8 184.58,-144 159.31,-136.07 131.51,-126.06 108.94,-117.59"/>
<polygon fill="#046582" stroke="#046582" points="109.88,-114.2 99.29,-113.94 107.41,-120.75 109.88,-114.2"/>
<text text-anchor="middle" x="218.08" y="-137.6" font-family="Times,serif" font-size="8.00">:isStructOfChain</text>
</g>
<!-- sio:SIO_001100 -->
<g id="node3" class="node">
<title>sio:SIO_001100</title>
<ellipse fill="#ffc996" stroke="#ffc996" cx="200.58" cy="-99" rx="55.17" ry="18"/>
<text text-anchor="middle" x="200.58" y="-96.5" font-family="Times,serif" font-size="10.00">sio:SIO_001100</text>
</g>
<!-- obo:NCIT_C13303&#45;&gt;sio:SIO_001100 -->
<g id="edge2" class="edge">
<title>obo:NCIT_C13303&#45;&gt;sio:SIO_001100</title>
<path fill="none" stroke="#046582" d="M293.38,-163.2C275.72,-151.18 251.23,-134.5 231.84,-121.29"/>
<polygon fill="#046582" stroke="#046582" points="233.57,-118.24 223.34,-115.5 229.63,-124.02 233.57,-118.24"/>
<text text-anchor="middle" x="284.08" y="-137.6" font-family="Times,serif" font-size="8.00">isInCrystal</text>
</g>
<!-- :ImgtLabel -->
<g id="node4" class="node">
<title>:ImgtLabel</title>
<ellipse fill="#ffc996" stroke="#ffc996" cx="316.58" cy="-99" rx="42.27" ry="18"/>
<text text-anchor="middle" x="316.58" y="-96.5" font-family="Times,serif" font-size="10.00">:ImgtLabel</text>
</g>
<!-- obo:NCIT_C13303&#45;&gt;:ImgtLabel -->
<g id="edge3" class="edge">
<title>obo:NCIT_C13303&#45;&gt;:ImgtLabel</title>
<path fill="none" stroke="#046582" d="M316.58,-161.86C316.58,-151.71 316.58,-138.63 316.58,-127.12"/>
<polygon fill="#046582" stroke="#046582" points="320.08,-127.11 316.58,-117.11 313.08,-127.11 320.08,-127.11"/>
<text text-anchor="middle" x="345.58" y="-137.6" font-family="Times,serif" font-size="8.00">:hasImgtLabel</text>
</g>
<!-- obo:GENO_0000722 -->
<g id="node5" class="node">
<title>obo:GENO_0000722</title>
<ellipse fill="#ffc996" stroke="#ffc996" cx="446.58" cy="-99" rx="70.1" ry="18"/>
<text text-anchor="middle" x="446.58" y="-96.5" font-family="Times,serif" font-size="10.00">obo:GENO_0000722</text>
</g>
<!-- obo:NCIT_C13303&#45;&gt;obo:GENO_0000722 -->
<g id="edge4" class="edge">
<title>obo:NCIT_C13303&#45;&gt;obo:GENO_0000722</title>
<path fill="none" stroke="#046582" d="M344.56,-163.67C355.28,-157.68 367.58,-150.65 378.58,-144 390.25,-136.94 402.85,-128.9 413.99,-121.65"/>
<polygon fill="#046582" stroke="#046582" points="416.12,-124.44 422.57,-116.04 412.28,-118.59 416.12,-124.44"/>
<text text-anchor="middle" x="412.58" y="-137.6" font-family="Times,serif" font-size="8.00">:hasEntry</text>
</g>
<!-- :MolecularComponent -->
<g id="node6" class="node">
<title>:MolecularComponent</title>
<ellipse fill="#ffc996" stroke="#ffc996" cx="611.58" cy="-99" rx="76.55" ry="18"/>
<text text-anchor="middle" x="611.58" y="-96.5" font-family="Times,serif" font-size="10.00">:MolecularComponent</text>
</g>
<!-- obo:NCIT_C13303&#45;&gt;:MolecularComponent -->
<g id="edge5" class="edge">
<title>obo:NCIT_C13303&#45;&gt;:MolecularComponent</title>
<path fill="none" stroke="#046582" d="M361.06,-167.09C412.23,-153.38 496.44,-130.83 552.93,-115.7"/>
<polygon fill="#046582" stroke="#046582" points="554.04,-119.03 562.79,-113.06 552.23,-112.27 554.04,-119.03"/>
<text text-anchor="middle" x="501.08" y="-137.6" font-family="Times,serif" font-size="8.00">:hasMolComp</text>
</g>
<!-- obo:NCIT_C25402 -->
<g id="node7" class="node">
<title>obo:NCIT_C25402</title>
<ellipse fill="#ffc996" stroke="#ffc996" cx="320.58" cy="-18" rx="63.65" ry="18"/>
<text text-anchor="middle" x="320.58" y="-15.5" font-family="Times,serif" font-size="10.00">obo:NCIT_C25402</text>
</g>
<!-- obo:GENO_0000722&#45;&gt;obo:NCIT_C25402 -->
<g id="edge6" class="edge">
<title>obo:GENO_0000722&#45;&gt;obo:NCIT_C25402</title>
<path fill="none" stroke="#046582" d="M406.76,-84.19C393.14,-78.6 378.17,-71.45 365.58,-63 357.18,-57.37 348.97,-50.06 341.92,-43.02"/>
<polygon fill="#046582" stroke="#046582" points="344.22,-40.36 334.76,-35.58 339.17,-45.21 344.22,-40.36"/>
<text text-anchor="middle" x="404.08" y="-56.6" font-family="Times,serif" font-size="8.00">obo:ERO_0000405</text>
</g>
<!-- bibo:Article -->
<g id="node8" class="node">
<title>bibo:Article</title>
<ellipse fill="#ffc996" stroke="#ffc996" cx="446.58" cy="-18" rx="44.3" ry="18"/>
<text text-anchor="middle" x="446.58" y="-15.5" font-family="Times,serif" font-size="10.00">bibo:Article</text>
</g>
<!-- obo:GENO_0000722&#45;&gt;bibo:Article -->
<g id="edge7" class="edge">
<title>obo:GENO_0000722&#45;&gt;bibo:Article</title>
<path fill="none" stroke="#046582" d="M446.58,-80.86C446.58,-70.71 446.58,-57.63 446.58,-46.12"/>
<polygon fill="#046582" stroke="#046582" points="450.08,-46.11 446.58,-36.11 443.08,-46.11 450.08,-46.11"/>
<text text-anchor="middle" x="473.08" y="-56.6" font-family="Times,serif" font-size="8.00">:hasBiblioRef</text>
</g>
<!-- :OBTENTION -->
<g id="node9" class="node">
<title>:OBTENTION</title>
<ellipse fill="#ffc996" stroke="#ffc996" cx="559.58" cy="-18" rx="50.75" ry="18"/>
<text text-anchor="middle" x="559.58" y="-15.5" font-family="Times,serif" font-size="10.00">:OBTENTION</text>
</g>
<!-- obo:GENO_0000722&#45;&gt;:OBTENTION -->
<g id="edge8" class="edge">
<title>obo:GENO_0000722&#45;&gt;:OBTENTION</title>
<path fill="none" stroke="#046582" d="M473.66,-82.24C483.26,-76.43 494.05,-69.64 503.58,-63 513.29,-56.24 523.56,-48.38 532.62,-41.2"/>
<polygon fill="#046582" stroke="#046582" points="534.94,-43.82 540.55,-34.83 530.56,-38.36 534.94,-43.82"/>
<text text-anchor="middle" x="549.08" y="-56.6" font-family="Times,serif" font-size="8.00">:isObtainedFrom</text>
</g>
</g>
</svg>
