<?xml version="1.0" encoding="utf-8" standalone="no"?>
<!DOCTYPE svg PUBLIC "-//W3C//DTD SVG 1.1//EN"
  "http://www.w3.org/Graphics/SVG/1.1/DTD/svg11.dtd">
<svg xmlns:xlink="http://www.w3.org/1999/xlink" width="630.3pt" height="816.828125pt" viewBox="0 0 630.3 816.828125" xmlns="http://www.w3.org/2000/svg" version="1.1">
 <metadata>
  <rdf:RDF xmlns:dc="http://purl.org/dc/elements/1.1/" xmlns:cc="http://creativecommons.org/ns#" xmlns:rdf="http://www.w3.org/1999/02/22-rdf-syntax-ns#">
   <cc:Work>
    <dc:type rdf:resource="http://purl.org/dc/dcmitype/StillImage"/>
    <dc:date>2023-04-20T13:21:47.039664</dc:date>
    <dc:format>image/svg+xml</dc:format>
    <dc:creator>
     <cc:Agent>
      <dc:title>Matplotlib v3.7.1, https://matplotlib.org/</dc:title>
     </cc:Agent>
    </dc:creator>
   </cc:Work>
  </rdf:RDF>
 </metadata>
 <defs>
  <style type="text/css">*{stroke-linejoin: round; stroke-linecap: butt}</style>
 </defs>
 <g id="figure_1">
  <g id="patch_1">
   <path d="M 0 816.828125 
L 630.3 816.828125 
L 630.3 -0 
L 0 -0 
z
" style="fill: #ffffff"/>
  </g>
  <g id="axes_1">
   <g id="patch_2">
    <path d="M 65.1 576.997656 
L 623.1 576.997656 
L 623.1 22.597656 
L 65.1 22.597656 
z
" style="fill: #ffffff"/>
   </g>
   <g id="patch_3">
    <path d="M 90.463636 576.997656 
L 110.959504 576.997656 
L 110.959504 48.997656 
L 90.463636 48.997656 
z
" clip-path="url(#p00ade2db15)" style="fill: #1f77b4"/>
   </g>
   <g id="patch_4">
    <path d="M 116.083471 576.997656 
L 136.579339 576.997656 
L 136.579339 102.67603 
L 116.083471 102.67603 
z
" clip-path="url(#p00ade2db15)" style="fill: #ff7f0e"/>
   </g>
   <g id="patch_5">
    <path d="M 141.703306 576.997656 
L 162.199174 576.997656 
L 162.199174 102.67603 
L 141.703306 102.67603 
z
" clip-path="url(#p00ade2db15)" style="fill: #2ca02c"/>
   </g>
   <g id="patch_6">
    <path d="M 167.32314 576.997656 
L 187.819008 576.997656 
L 187.819008 121.358892 
L 167.32314 121.358892 
z
" clip-path="url(#p00ade2db15)" style="fill: #d62728"/>
   </g>
   <g id="patch_7">
    <path d="M 192.942975 576.997656 
L 213.438843 576.997656 
L 213.438843 121.358892 
L 192.942975 121.358892 
z
" clip-path="url(#p00ade2db15)" style="fill: #9467bd"/>
   </g>
   <g id="patch_8">
    <path d="M 218.56281 576.997656 
L 239.058678 576.997656 
L 239.058678 169.181443 
L 218.56281 169.181443 
z
" clip-path="url(#p00ade2db15)" style="fill: #8c564b"/>
   </g>
   <g id="patch_9">
    <path d="M 244.182645 576.997656 
L 264.678512 576.997656 
L 264.678512 179.498845 
L 244.182645 179.498845 
z
" clip-path="url(#p00ade2db15)" style="fill: #e377c2"/>
   </g>
   <g id="patch_10">
    <path d="M 269.802479 576.997656 
L 290.298347 576.997656 
L 290.298347 260.086117 
L 269.802479 260.086117 
z
" clip-path="url(#p00ade2db15)" style="fill: #7f7f7f"/>
   </g>
   <g id="patch_11">
    <path d="M 295.422314 576.997656 
L 315.918182 576.997656 
L 315.918182 303.725937 
L 295.422314 303.725937 
z
" clip-path="url(#p00ade2db15)" style="fill: #bcbd22"/>
   </g>
   <g id="patch_12">
    <path d="M 321.042149 576.997656 
L 341.538017 576.997656 
L 341.538017 325.476135 
L 321.042149 325.476135 
z
" clip-path="url(#p00ade2db15)" style="fill: #17becf"/>
   </g>
   <g id="patch_13">
    <path d="M 346.661983 576.997656 
L 367.157851 576.997656 
L 367.157851 325.476135 
L 346.661983 325.476135 
z
" clip-path="url(#p00ade2db15)" style="fill: #1f77b4"/>
   </g>
   <g id="patch_14">
    <path d="M 372.281818 576.997656 
L 392.777686 576.997656 
L 392.777686 334.956991 
L 372.281818 334.956991 
z
" clip-path="url(#p00ade2db15)" style="fill: #ff7f0e"/>
   </g>
   <g id="patch_15">
    <path d="M 397.901653 576.997656 
L 418.397521 576.997656 
L 418.397521 334.956991 
L 397.901653 334.956991 
z
" clip-path="url(#p00ade2db15)" style="fill: #2ca02c"/>
   </g>
   <g id="patch_16">
    <path d="M 423.521488 576.997656 
L 444.017355 576.997656 
L 444.017355 341.231086 
L 423.521488 341.231086 
z
" clip-path="url(#p00ade2db15)" style="fill: #d62728"/>
   </g>
   <g id="patch_17">
    <path d="M 449.141322 576.997656 
L 469.63719 576.997656 
L 469.63719 341.231086 
L 449.141322 341.231086 
z
" clip-path="url(#p00ade2db15)" style="fill: #9467bd"/>
   </g>
   <g id="patch_18">
    <path d="M 474.761157 576.997656 
L 495.257025 576.997656 
L 495.257025 368.000561 
L 474.761157 368.000561 
z
" clip-path="url(#p00ade2db15)" style="fill: #8c564b"/>
   </g>
   <g id="patch_19">
    <path d="M 500.380992 576.997656 
L 520.87686 576.997656 
L 520.87686 368.000561 
L 500.380992 368.000561 
z
" clip-path="url(#p00ade2db15)" style="fill: #e377c2"/>
   </g>
   <g id="patch_20">
    <path d="M 526.000826 576.997656 
L 546.496694 576.997656 
L 546.496694 376.923719 
L 526.000826 376.923719 
z
" clip-path="url(#p00ade2db15)" style="fill: #7f7f7f"/>
   </g>
   <g id="patch_21">
    <path d="M 551.620661 576.997656 
L 572.116529 576.997656 
L 572.116529 379.433357 
L 551.620661 379.433357 
z
" clip-path="url(#p00ade2db15)" style="fill: #bcbd22"/>
   </g>
   <g id="patch_22">
    <path d="M 577.240496 576.997656 
L 597.736364 576.997656 
L 597.736364 379.433357 
L 577.240496 379.433357 
z
" clip-path="url(#p00ade2db15)" style="fill: #17becf"/>
   </g>
   <g id="matplotlib.axis_1">
    <g id="xtick_1">
     <g id="line2d_1">
      <defs>
       <path id="mb6ab41f78e" d="M 0 0 
L 0 3.5 
" style="stroke: #000000; stroke-width: 0.8"/>
      </defs>
      <g>
       <use xlink:href="#mb6ab41f78e" x="100.71157" y="576.997656" style="stroke: #000000; stroke-width: 0.8"/>
      </g>
     </g>
     <g id="text_1">
      <!-- imgt:commun_name -->
      <g transform="translate(104.642039 738.93125) rotate(-90) scale(0.15 -0.15)">
       <defs>
        <path id="DejaVuSans-69" d="M 603 3500 
L 1178 3500 
L 1178 0 
L 603 0 
L 603 3500 
z
M 603 4863 
L 1178 4863 
L 1178 4134 
L 603 4134 
L 603 4863 
z
" transform="scale(0.015625)"/>
        <path id="DejaVuSans-6d" d="M 3328 2828 
Q 3544 3216 3844 3400 
Q 4144 3584 4550 3584 
Q 5097 3584 5394 3201 
Q 5691 2819 5691 2113 
L 5691 0 
L 5113 0 
L 5113 2094 
Q 5113 2597 4934 2840 
Q 4756 3084 4391 3084 
Q 3944 3084 3684 2787 
Q 3425 2491 3425 1978 
L 3425 0 
L 2847 0 
L 2847 2094 
Q 2847 2600 2669 2842 
Q 2491 3084 2119 3084 
Q 1678 3084 1418 2786 
Q 1159 2488 1159 1978 
L 1159 0 
L 581 0 
L 581 3500 
L 1159 3500 
L 1159 2956 
Q 1356 3278 1631 3431 
Q 1906 3584 2284 3584 
Q 2666 3584 2933 3390 
Q 3200 3197 3328 2828 
z
" transform="scale(0.015625)"/>
        <path id="DejaVuSans-67" d="M 2906 1791 
Q 2906 2416 2648 2759 
Q 2391 3103 1925 3103 
Q 1463 3103 1205 2759 
Q 947 2416 947 1791 
Q 947 1169 1205 825 
Q 1463 481 1925 481 
Q 2391 481 2648 825 
Q 2906 1169 2906 1791 
z
M 3481 434 
Q 3481 -459 3084 -895 
Q 2688 -1331 1869 -1331 
Q 1566 -1331 1297 -1286 
Q 1028 -1241 775 -1147 
L 775 -588 
Q 1028 -725 1275 -790 
Q 1522 -856 1778 -856 
Q 2344 -856 2625 -561 
Q 2906 -266 2906 331 
L 2906 616 
Q 2728 306 2450 153 
Q 2172 0 1784 0 
Q 1141 0 747 490 
Q 353 981 353 1791 
Q 353 2603 747 3093 
Q 1141 3584 1784 3584 
Q 2172 3584 2450 3431 
Q 2728 3278 2906 2969 
L 2906 3500 
L 3481 3500 
L 3481 434 
z
" transform="scale(0.015625)"/>
        <path id="DejaVuSans-74" d="M 1172 4494 
L 1172 3500 
L 2356 3500 
L 2356 3053 
L 1172 3053 
L 1172 1153 
Q 1172 725 1289 603 
Q 1406 481 1766 481 
L 2356 481 
L 2356 0 
L 1766 0 
Q 1100 0 847 248 
Q 594 497 594 1153 
L 594 3053 
L 172 3053 
L 172 3500 
L 594 3500 
L 594 4494 
L 1172 4494 
z
" transform="scale(0.015625)"/>
        <path id="DejaVuSans-3a" d="M 750 794 
L 1409 794 
L 1409 0 
L 750 0 
L 750 794 
z
M 750 3309 
L 1409 3309 
L 1409 2516 
L 750 2516 
L 750 3309 
z
" transform="scale(0.015625)"/>
        <path id="DejaVuSans-63" d="M 3122 3366 
L 3122 2828 
Q 2878 2963 2633 3030 
Q 2388 3097 2138 3097 
Q 1578 3097 1268 2742 
Q 959 2388 959 1747 
Q 959 1106 1268 751 
Q 1578 397 2138 397 
Q 2388 397 2633 464 
Q 2878 531 3122 666 
L 3122 134 
Q 2881 22 2623 -34 
Q 2366 -91 2075 -91 
Q 1284 -91 818 406 
Q 353 903 353 1747 
Q 353 2603 823 3093 
Q 1294 3584 2113 3584 
Q 2378 3584 2631 3529 
Q 2884 3475 3122 3366 
z
" transform="scale(0.015625)"/>
        <path id="DejaVuSans-6f" d="M 1959 3097 
Q 1497 3097 1228 2736 
Q 959 2375 959 1747 
Q 959 1119 1226 758 
Q 1494 397 1959 397 
Q 2419 397 2687 759 
Q 2956 1122 2956 1747 
Q 2956 2369 2687 2733 
Q 2419 3097 1959 3097 
z
M 1959 3584 
Q 2709 3584 3137 3096 
Q 3566 2609 3566 1747 
Q 3566 888 3137 398 
Q 2709 -91 1959 -91 
Q 1206 -91 779 398 
Q 353 888 353 1747 
Q 353 2609 779 3096 
Q 1206 3584 1959 3584 
z
" transform="scale(0.015625)"/>
        <path id="DejaVuSans-75" d="M 544 1381 
L 544 3500 
L 1119 3500 
L 1119 1403 
Q 1119 906 1312 657 
Q 1506 409 1894 409 
Q 2359 409 2629 706 
Q 2900 1003 2900 1516 
L 2900 3500 
L 3475 3500 
L 3475 0 
L 2900 0 
L 2900 538 
Q 2691 219 2414 64 
Q 2138 -91 1772 -91 
Q 1169 -91 856 284 
Q 544 659 544 1381 
z
M 1991 3584 
L 1991 3584 
z
" transform="scale(0.015625)"/>
        <path id="DejaVuSans-6e" d="M 3513 2113 
L 3513 0 
L 2938 0 
L 2938 2094 
Q 2938 2591 2744 2837 
Q 2550 3084 2163 3084 
Q 1697 3084 1428 2787 
Q 1159 2491 1159 1978 
L 1159 0 
L 581 0 
L 581 3500 
L 1159 3500 
L 1159 2956 
Q 1366 3272 1645 3428 
Q 1925 3584 2291 3584 
Q 2894 3584 3203 3211 
Q 3513 2838 3513 2113 
z
" transform="scale(0.015625)"/>
        <path id="DejaVuSans-5f" d="M 3263 -1063 
L 3263 -1509 
L -63 -1509 
L -63 -1063 
L 3263 -1063 
z
" transform="scale(0.015625)"/>
        <path id="DejaVuSans-61" d="M 2194 1759 
Q 1497 1759 1228 1600 
Q 959 1441 959 1056 
Q 959 750 1161 570 
Q 1363 391 1709 391 
Q 2188 391 2477 730 
Q 2766 1069 2766 1631 
L 2766 1759 
L 2194 1759 
z
M 3341 1997 
L 3341 0 
L 2766 0 
L 2766 531 
Q 2569 213 2275 61 
Q 1981 -91 1556 -91 
Q 1019 -91 701 211 
Q 384 513 384 1019 
Q 384 1609 779 1909 
Q 1175 2209 1959 2209 
L 2766 2209 
L 2766 2266 
Q 2766 2663 2505 2880 
Q 2244 3097 1772 3097 
Q 1472 3097 1187 3025 
Q 903 2953 641 2809 
L 641 3341 
Q 956 3463 1253 3523 
Q 1550 3584 1831 3584 
Q 2591 3584 2966 3190 
Q 3341 2797 3341 1997 
z
" transform="scale(0.015625)"/>
        <path id="DejaVuSans-65" d="M 3597 1894 
L 3597 1613 
L 953 1613 
Q 991 1019 1311 708 
Q 1631 397 2203 397 
Q 2534 397 2845 478 
Q 3156 559 3463 722 
L 3463 178 
Q 3153 47 2828 -22 
Q 2503 -91 2169 -91 
Q 1331 -91 842 396 
Q 353 884 353 1716 
Q 353 2575 817 3079 
Q 1281 3584 2069 3584 
Q 2775 3584 3186 3129 
Q 3597 2675 3597 1894 
z
M 3022 2063 
Q 3016 2534 2758 2815 
Q 2500 3097 2075 3097 
Q 1594 3097 1305 2825 
Q 1016 2553 972 2059 
L 3022 2063 
z
" transform="scale(0.015625)"/>
       </defs>
       <use xlink:href="#DejaVuSans-69"/>
       <use xlink:href="#DejaVuSans-6d" x="27.783203"/>
       <use xlink:href="#DejaVuSans-67" x="125.195312"/>
       <use xlink:href="#DejaVuSans-74" x="188.671875"/>
       <use xlink:href="#DejaVuSans-3a" x="227.880859"/>
       <use xlink:href="#DejaVuSans-63" x="261.572266"/>
       <use xlink:href="#DejaVuSans-6f" x="316.552734"/>
       <use xlink:href="#DejaVuSans-6d" x="377.734375"/>
       <use xlink:href="#DejaVuSans-6d" x="475.146484"/>
       <use xlink:href="#DejaVuSans-75" x="572.558594"/>
       <use xlink:href="#DejaVuSans-6e" x="635.9375"/>
       <use xlink:href="#DejaVuSans-5f" x="699.316406"/>
       <use xlink:href="#DejaVuSans-6e" x="749.316406"/>
       <use xlink:href="#DejaVuSans-61" x="812.695312"/>
       <use xlink:href="#DejaVuSans-6d" x="873.974609"/>
       <use xlink:href="#DejaVuSans-65" x="971.386719"/>
      </g>
     </g>
    </g>
    <g id="xtick_2">
     <g id="line2d_2">
      <g>
       <use xlink:href="#mb6ab41f78e" x="126.331405" y="576.997656" style="stroke: #000000; stroke-width: 0.8"/>
      </g>
     </g>
     <g id="text_2">
      <!-- imgt:hasStudyProduct -->
      <g transform="translate(130.470467 750.000781) rotate(-90) scale(0.15 -0.15)">
       <defs>
        <path id="DejaVuSans-68" d="M 3513 2113 
L 3513 0 
L 2938 0 
L 2938 2094 
Q 2938 2591 2744 2837 
Q 2550 3084 2163 3084 
Q 1697 3084 1428 2787 
Q 1159 2491 1159 1978 
L 1159 0 
L 581 0 
L 581 4863 
L 1159 4863 
L 1159 2956 
Q 1366 3272 1645 3428 
Q 1925 3584 2291 3584 
Q 2894 3584 3203 3211 
Q 3513 2838 3513 2113 
z
" transform="scale(0.015625)"/>
        <path id="DejaVuSans-73" d="M 2834 3397 
L 2834 2853 
Q 2591 2978 2328 3040 
Q 2066 3103 1784 3103 
Q 1356 3103 1142 2972 
Q 928 2841 928 2578 
Q 928 2378 1081 2264 
Q 1234 2150 1697 2047 
L 1894 2003 
Q 2506 1872 2764 1633 
Q 3022 1394 3022 966 
Q 3022 478 2636 193 
Q 2250 -91 1575 -91 
Q 1294 -91 989 -36 
Q 684 19 347 128 
L 347 722 
Q 666 556 975 473 
Q 1284 391 1588 391 
Q 1994 391 2212 530 
Q 2431 669 2431 922 
Q 2431 1156 2273 1281 
Q 2116 1406 1581 1522 
L 1381 1569 
Q 847 1681 609 1914 
Q 372 2147 372 2553 
Q 372 3047 722 3315 
Q 1072 3584 1716 3584 
Q 2034 3584 2315 3537 
Q 2597 3491 2834 3397 
z
" transform="scale(0.015625)"/>
        <path id="DejaVuSans-53" d="M 3425 4513 
L 3425 3897 
Q 3066 4069 2747 4153 
Q 2428 4238 2131 4238 
Q 1616 4238 1336 4038 
Q 1056 3838 1056 3469 
Q 1056 3159 1242 3001 
Q 1428 2844 1947 2747 
L 2328 2669 
Q 3034 2534 3370 2195 
Q 3706 1856 3706 1288 
Q 3706 609 3251 259 
Q 2797 -91 1919 -91 
Q 1588 -91 1214 -16 
Q 841 59 441 206 
L 441 856 
Q 825 641 1194 531 
Q 1563 422 1919 422 
Q 2459 422 2753 634 
Q 3047 847 3047 1241 
Q 3047 1584 2836 1778 
Q 2625 1972 2144 2069 
L 1759 2144 
Q 1053 2284 737 2584 
Q 422 2884 422 3419 
Q 422 4038 858 4394 
Q 1294 4750 2059 4750 
Q 2388 4750 2728 4690 
Q 3069 4631 3425 4513 
z
" transform="scale(0.015625)"/>
        <path id="DejaVuSans-64" d="M 2906 2969 
L 2906 4863 
L 3481 4863 
L 3481 0 
L 2906 0 
L 2906 525 
Q 2725 213 2448 61 
Q 2172 -91 1784 -91 
Q 1150 -91 751 415 
Q 353 922 353 1747 
Q 353 2572 751 3078 
Q 1150 3584 1784 3584 
Q 2172 3584 2448 3432 
Q 2725 3281 2906 2969 
z
M 947 1747 
Q 947 1113 1208 752 
Q 1469 391 1925 391 
Q 2381 391 2643 752 
Q 2906 1113 2906 1747 
Q 2906 2381 2643 2742 
Q 2381 3103 1925 3103 
Q 1469 3103 1208 2742 
Q 947 2381 947 1747 
z
" transform="scale(0.015625)"/>
        <path id="DejaVuSans-79" d="M 2059 -325 
Q 1816 -950 1584 -1140 
Q 1353 -1331 966 -1331 
L 506 -1331 
L 506 -850 
L 844 -850 
Q 1081 -850 1212 -737 
Q 1344 -625 1503 -206 
L 1606 56 
L 191 3500 
L 800 3500 
L 1894 763 
L 2988 3500 
L 3597 3500 
L 2059 -325 
z
" transform="scale(0.015625)"/>
        <path id="DejaVuSans-50" d="M 1259 4147 
L 1259 2394 
L 2053 2394 
Q 2494 2394 2734 2622 
Q 2975 2850 2975 3272 
Q 2975 3691 2734 3919 
Q 2494 4147 2053 4147 
L 1259 4147 
z
M 628 4666 
L 2053 4666 
Q 2838 4666 3239 4311 
Q 3641 3956 3641 3272 
Q 3641 2581 3239 2228 
Q 2838 1875 2053 1875 
L 1259 1875 
L 1259 0 
L 628 0 
L 628 4666 
z
" transform="scale(0.015625)"/>
        <path id="DejaVuSans-72" d="M 2631 2963 
Q 2534 3019 2420 3045 
Q 2306 3072 2169 3072 
Q 1681 3072 1420 2755 
Q 1159 2438 1159 1844 
L 1159 0 
L 581 0 
L 581 3500 
L 1159 3500 
L 1159 2956 
Q 1341 3275 1631 3429 
Q 1922 3584 2338 3584 
Q 2397 3584 2469 3576 
Q 2541 3569 2628 3553 
L 2631 2963 
z
" transform="scale(0.015625)"/>
       </defs>
       <use xlink:href="#DejaVuSans-69"/>
       <use xlink:href="#DejaVuSans-6d" x="27.783203"/>
       <use xlink:href="#DejaVuSans-67" x="125.195312"/>
       <use xlink:href="#DejaVuSans-74" x="188.671875"/>
       <use xlink:href="#DejaVuSans-3a" x="227.880859"/>
       <use xlink:href="#DejaVuSans-68" x="261.572266"/>
       <use xlink:href="#DejaVuSans-61" x="324.951172"/>
       <use xlink:href="#DejaVuSans-73" x="386.230469"/>
       <use xlink:href="#DejaVuSans-53" x="438.330078"/>
       <use xlink:href="#DejaVuSans-74" x="501.806641"/>
       <use xlink:href="#DejaVuSans-75" x="541.015625"/>
       <use xlink:href="#DejaVuSans-64" x="604.394531"/>
       <use xlink:href="#DejaVuSans-79" x="667.871094"/>
       <use xlink:href="#DejaVuSans-50" x="727.050781"/>
       <use xlink:href="#DejaVuSans-72" x="785.603516"/>
       <use xlink:href="#DejaVuSans-6f" x="824.466797"/>
       <use xlink:href="#DejaVuSans-64" x="885.648438"/>
       <use xlink:href="#DejaVuSans-75" x="949.125"/>
       <use xlink:href="#DejaVuSans-63" x="1012.503906"/>
       <use xlink:href="#DejaVuSans-74" x="1067.484375"/>
      </g>
     </g>
    </g>
    <g id="xtick_3">
     <g id="line2d_3">
      <g>
       <use xlink:href="#mb6ab41f78e" x="151.95124" y="576.997656" style="stroke: #000000; stroke-width: 0.8"/>
      </g>
     </g>
     <g id="text_3">
      <!-- imgt:isStudyProductOf -->
      <g transform="translate(156.090302 752.557812) rotate(-90) scale(0.15 -0.15)">
       <defs>
        <path id="DejaVuSans-4f" d="M 2522 4238 
Q 1834 4238 1429 3725 
Q 1025 3213 1025 2328 
Q 1025 1447 1429 934 
Q 1834 422 2522 422 
Q 3209 422 3611 934 
Q 4013 1447 4013 2328 
Q 4013 3213 3611 3725 
Q 3209 4238 2522 4238 
z
M 2522 4750 
Q 3503 4750 4090 4092 
Q 4678 3434 4678 2328 
Q 4678 1225 4090 567 
Q 3503 -91 2522 -91 
Q 1538 -91 948 565 
Q 359 1222 359 2328 
Q 359 3434 948 4092 
Q 1538 4750 2522 4750 
z
" transform="scale(0.015625)"/>
        <path id="DejaVuSans-66" d="M 2375 4863 
L 2375 4384 
L 1825 4384 
Q 1516 4384 1395 4259 
Q 1275 4134 1275 3809 
L 1275 3500 
L 2222 3500 
L 2222 3053 
L 1275 3053 
L 1275 0 
L 697 0 
L 697 3053 
L 147 3053 
L 147 3500 
L 697 3500 
L 697 3744 
Q 697 4328 969 4595 
Q 1241 4863 1831 4863 
L 2375 4863 
z
" transform="scale(0.015625)"/>
       </defs>
       <use xlink:href="#DejaVuSans-69"/>
       <use xlink:href="#DejaVuSans-6d" x="27.783203"/>
       <use xlink:href="#DejaVuSans-67" x="125.195312"/>
       <use xlink:href="#DejaVuSans-74" x="188.671875"/>
       <use xlink:href="#DejaVuSans-3a" x="227.880859"/>
       <use xlink:href="#DejaVuSans-69" x="261.572266"/>
       <use xlink:href="#DejaVuSans-73" x="289.355469"/>
       <use xlink:href="#DejaVuSans-53" x="341.455078"/>
       <use xlink:href="#DejaVuSans-74" x="404.931641"/>
       <use xlink:href="#DejaVuSans-75" x="444.140625"/>
       <use xlink:href="#DejaVuSans-64" x="507.519531"/>
       <use xlink:href="#DejaVuSans-79" x="570.996094"/>
       <use xlink:href="#DejaVuSans-50" x="630.175781"/>
       <use xlink:href="#DejaVuSans-72" x="688.728516"/>
       <use xlink:href="#DejaVuSans-6f" x="727.591797"/>
       <use xlink:href="#DejaVuSans-64" x="788.773438"/>
       <use xlink:href="#DejaVuSans-75" x="852.25"/>
       <use xlink:href="#DejaVuSans-63" x="915.628906"/>
       <use xlink:href="#DejaVuSans-74" x="970.609375"/>
       <use xlink:href="#DejaVuSans-4f" x="1009.818359"/>
       <use xlink:href="#DejaVuSans-66" x="1088.529297"/>
      </g>
     </g>
    </g>
    <g id="xtick_4">
     <g id="line2d_4">
      <g>
       <use xlink:href="#mb6ab41f78e" x="177.571074" y="576.997656" style="stroke: #000000; stroke-width: 0.8"/>
      </g>
     </g>
     <g id="text_4">
      <!-- imgt:hasClinicalIndication -->
      <g transform="translate(181.710137 777.626562) rotate(-90) scale(0.15 -0.15)">
       <defs>
        <path id="DejaVuSans-43" d="M 4122 4306 
L 4122 3641 
Q 3803 3938 3442 4084 
Q 3081 4231 2675 4231 
Q 1875 4231 1450 3742 
Q 1025 3253 1025 2328 
Q 1025 1406 1450 917 
Q 1875 428 2675 428 
Q 3081 428 3442 575 
Q 3803 722 4122 1019 
L 4122 359 
Q 3791 134 3420 21 
Q 3050 -91 2638 -91 
Q 1578 -91 968 557 
Q 359 1206 359 2328 
Q 359 3453 968 4101 
Q 1578 4750 2638 4750 
Q 3056 4750 3426 4639 
Q 3797 4528 4122 4306 
z
" transform="scale(0.015625)"/>
        <path id="DejaVuSans-6c" d="M 603 4863 
L 1178 4863 
L 1178 0 
L 603 0 
L 603 4863 
z
" transform="scale(0.015625)"/>
        <path id="DejaVuSans-49" d="M 628 4666 
L 1259 4666 
L 1259 0 
L 628 0 
L 628 4666 
z
" transform="scale(0.015625)"/>
       </defs>
       <use xlink:href="#DejaVuSans-69"/>
       <use xlink:href="#DejaVuSans-6d" x="27.783203"/>
       <use xlink:href="#DejaVuSans-67" x="125.195312"/>
       <use xlink:href="#DejaVuSans-74" x="188.671875"/>
       <use xlink:href="#DejaVuSans-3a" x="227.880859"/>
       <use xlink:href="#DejaVuSans-68" x="261.572266"/>
       <use xlink:href="#DejaVuSans-61" x="324.951172"/>
       <use xlink:href="#DejaVuSans-73" x="386.230469"/>
       <use xlink:href="#DejaVuSans-43" x="438.330078"/>
       <use xlink:href="#DejaVuSans-6c" x="508.154297"/>
       <use xlink:href="#DejaVuSans-69" x="535.9375"/>
       <use xlink:href="#DejaVuSans-6e" x="563.720703"/>
       <use xlink:href="#DejaVuSans-69" x="627.099609"/>
       <use xlink:href="#DejaVuSans-63" x="654.882812"/>
       <use xlink:href="#DejaVuSans-61" x="709.863281"/>
       <use xlink:href="#DejaVuSans-6c" x="771.142578"/>
       <use xlink:href="#DejaVuSans-49" x="798.925781"/>
       <use xlink:href="#DejaVuSans-6e" x="828.417969"/>
       <use xlink:href="#DejaVuSans-64" x="891.796875"/>
       <use xlink:href="#DejaVuSans-69" x="955.273438"/>
       <use xlink:href="#DejaVuSans-63" x="983.056641"/>
       <use xlink:href="#DejaVuSans-61" x="1038.037109"/>
       <use xlink:href="#DejaVuSans-74" x="1099.316406"/>
       <use xlink:href="#DejaVuSans-69" x="1138.525391"/>
       <use xlink:href="#DejaVuSans-6f" x="1166.308594"/>
       <use xlink:href="#DejaVuSans-6e" x="1227.490234"/>
      </g>
     </g>
    </g>
    <g id="xtick_5">
     <g id="line2d_5">
      <g>
       <use xlink:href="#mb6ab41f78e" x="203.190909" y="576.997656" style="stroke: #000000; stroke-width: 0.8"/>
      </g>
     </g>
     <g id="text_5">
      <!-- imgt:isClinicalIndicationOf -->
      <g transform="translate(207.329972 780.183594) rotate(-90) scale(0.15 -0.15)">
       <use xlink:href="#DejaVuSans-69"/>
       <use xlink:href="#DejaVuSans-6d" x="27.783203"/>
       <use xlink:href="#DejaVuSans-67" x="125.195312"/>
       <use xlink:href="#DejaVuSans-74" x="188.671875"/>
       <use xlink:href="#DejaVuSans-3a" x="227.880859"/>
       <use xlink:href="#DejaVuSans-69" x="261.572266"/>
       <use xlink:href="#DejaVuSans-73" x="289.355469"/>
       <use xlink:href="#DejaVuSans-43" x="341.455078"/>
       <use xlink:href="#DejaVuSans-6c" x="411.279297"/>
       <use xlink:href="#DejaVuSans-69" x="439.0625"/>
       <use xlink:href="#DejaVuSans-6e" x="466.845703"/>
       <use xlink:href="#DejaVuSans-69" x="530.224609"/>
       <use xlink:href="#DejaVuSans-63" x="558.007812"/>
       <use xlink:href="#DejaVuSans-61" x="612.988281"/>
       <use xlink:href="#DejaVuSans-6c" x="674.267578"/>
       <use xlink:href="#DejaVuSans-49" x="702.050781"/>
       <use xlink:href="#DejaVuSans-6e" x="731.542969"/>
       <use xlink:href="#DejaVuSans-64" x="794.921875"/>
       <use xlink:href="#DejaVuSans-69" x="858.398438"/>
       <use xlink:href="#DejaVuSans-63" x="886.181641"/>
       <use xlink:href="#DejaVuSans-61" x="941.162109"/>
       <use xlink:href="#DejaVuSans-74" x="1002.441406"/>
       <use xlink:href="#DejaVuSans-69" x="1041.650391"/>
       <use xlink:href="#DejaVuSans-6f" x="1069.433594"/>
       <use xlink:href="#DejaVuSans-6e" x="1130.615234"/>
       <use xlink:href="#DejaVuSans-4f" x="1193.994141"/>
       <use xlink:href="#DejaVuSans-66" x="1272.705078"/>
      </g>
     </g>
    </g>
    <g id="xtick_6">
     <g id="line2d_6">
      <g>
       <use xlink:href="#mb6ab41f78e" x="228.810744" y="576.997656" style="stroke: #000000; stroke-width: 0.8"/>
      </g>
     </g>
     <g id="text_6">
      <!-- imgt:hasClinicalPhase -->
      <g transform="translate(232.949806 748.620312) rotate(-90) scale(0.15 -0.15)">
       <use xlink:href="#DejaVuSans-69"/>
       <use xlink:href="#DejaVuSans-6d" x="27.783203"/>
       <use xlink:href="#DejaVuSans-67" x="125.195312"/>
       <use xlink:href="#DejaVuSans-74" x="188.671875"/>
       <use xlink:href="#DejaVuSans-3a" x="227.880859"/>
       <use xlink:href="#DejaVuSans-68" x="261.572266"/>
       <use xlink:href="#DejaVuSans-61" x="324.951172"/>
       <use xlink:href="#DejaVuSans-73" x="386.230469"/>
       <use xlink:href="#DejaVuSans-43" x="438.330078"/>
       <use xlink:href="#DejaVuSans-6c" x="508.154297"/>
       <use xlink:href="#DejaVuSans-69" x="535.9375"/>
       <use xlink:href="#DejaVuSans-6e" x="563.720703"/>
       <use xlink:href="#DejaVuSans-69" x="627.099609"/>
       <use xlink:href="#DejaVuSans-63" x="654.882812"/>
       <use xlink:href="#DejaVuSans-61" x="709.863281"/>
       <use xlink:href="#DejaVuSans-6c" x="771.142578"/>
       <use xlink:href="#DejaVuSans-50" x="798.925781"/>
       <use xlink:href="#DejaVuSans-68" x="859.228516"/>
       <use xlink:href="#DejaVuSans-61" x="922.607422"/>
       <use xlink:href="#DejaVuSans-73" x="983.886719"/>
       <use xlink:href="#DejaVuSans-65" x="1035.986328"/>
      </g>
     </g>
    </g>
    <g id="xtick_7">
     <g id="line2d_7">
      <g>
       <use xlink:href="#mb6ab41f78e" x="254.430579" y="576.997656" style="stroke: #000000; stroke-width: 0.8"/>
      </g>
     </g>
     <g id="text_7">
      <!-- imgt:hasImgtLabel -->
      <g transform="translate(258.569641 724.653125) rotate(-90) scale(0.15 -0.15)">
       <defs>
        <path id="DejaVuSans-4c" d="M 628 4666 
L 1259 4666 
L 1259 531 
L 3531 531 
L 3531 0 
L 628 0 
L 628 4666 
z
" transform="scale(0.015625)"/>
        <path id="DejaVuSans-62" d="M 3116 1747 
Q 3116 2381 2855 2742 
Q 2594 3103 2138 3103 
Q 1681 3103 1420 2742 
Q 1159 2381 1159 1747 
Q 1159 1113 1420 752 
Q 1681 391 2138 391 
Q 2594 391 2855 752 
Q 3116 1113 3116 1747 
z
M 1159 2969 
Q 1341 3281 1617 3432 
Q 1894 3584 2278 3584 
Q 2916 3584 3314 3078 
Q 3713 2572 3713 1747 
Q 3713 922 3314 415 
Q 2916 -91 2278 -91 
Q 1894 -91 1617 61 
Q 1341 213 1159 525 
L 1159 0 
L 581 0 
L 581 4863 
L 1159 4863 
L 1159 2969 
z
" transform="scale(0.015625)"/>
       </defs>
       <use xlink:href="#DejaVuSans-69"/>
       <use xlink:href="#DejaVuSans-6d" x="27.783203"/>
       <use xlink:href="#DejaVuSans-67" x="125.195312"/>
       <use xlink:href="#DejaVuSans-74" x="188.671875"/>
       <use xlink:href="#DejaVuSans-3a" x="227.880859"/>
       <use xlink:href="#DejaVuSans-68" x="261.572266"/>
       <use xlink:href="#DejaVuSans-61" x="324.951172"/>
       <use xlink:href="#DejaVuSans-73" x="386.230469"/>
       <use xlink:href="#DejaVuSans-49" x="438.330078"/>
       <use xlink:href="#DejaVuSans-6d" x="467.822266"/>
       <use xlink:href="#DejaVuSans-67" x="565.234375"/>
       <use xlink:href="#DejaVuSans-74" x="628.710938"/>
       <use xlink:href="#DejaVuSans-4c" x="667.919922"/>
       <use xlink:href="#DejaVuSans-61" x="723.632812"/>
       <use xlink:href="#DejaVuSans-62" x="784.912109"/>
       <use xlink:href="#DejaVuSans-65" x="848.388672"/>
       <use xlink:href="#DejaVuSans-6c" x="909.912109"/>
      </g>
     </g>
    </g>
    <g id="xtick_8">
     <g id="line2d_8">
      <g>
       <use xlink:href="#mb6ab41f78e" x="280.050413" y="576.997656" style="stroke: #000000; stroke-width: 0.8"/>
      </g>
     </g>
     <g id="text_8">
      <!-- dc:contributor -->
      <g transform="translate(284.189476 690.221094) rotate(-90) scale(0.15 -0.15)">
       <use xlink:href="#DejaVuSans-64"/>
       <use xlink:href="#DejaVuSans-63" x="63.476562"/>
       <use xlink:href="#DejaVuSans-3a" x="118.457031"/>
       <use xlink:href="#DejaVuSans-63" x="152.148438"/>
       <use xlink:href="#DejaVuSans-6f" x="207.128906"/>
       <use xlink:href="#DejaVuSans-6e" x="268.310547"/>
       <use xlink:href="#DejaVuSans-74" x="331.689453"/>
       <use xlink:href="#DejaVuSans-72" x="370.898438"/>
       <use xlink:href="#DejaVuSans-69" x="412.011719"/>
       <use xlink:href="#DejaVuSans-62" x="439.794922"/>
       <use xlink:href="#DejaVuSans-75" x="503.271484"/>
       <use xlink:href="#DejaVuSans-74" x="566.650391"/>
       <use xlink:href="#DejaVuSans-6f" x="605.859375"/>
       <use xlink:href="#DejaVuSans-72" x="667.041016"/>
      </g>
     </g>
    </g>
    <g id="xtick_9">
     <g id="line2d_9">
      <g>
       <use xlink:href="#mb6ab41f78e" x="305.670248" y="576.997656" style="stroke: #000000; stroke-width: 0.8"/>
      </g>
     </g>
     <g id="text_9">
      <!-- skos:definition -->
      <g transform="translate(309.80931 692.604687) rotate(-90) scale(0.15 -0.15)">
       <defs>
        <path id="DejaVuSans-6b" d="M 581 4863 
L 1159 4863 
L 1159 1991 
L 2875 3500 
L 3609 3500 
L 1753 1863 
L 3688 0 
L 2938 0 
L 1159 1709 
L 1159 0 
L 581 0 
L 581 4863 
z
" transform="scale(0.015625)"/>
       </defs>
       <use xlink:href="#DejaVuSans-73"/>
       <use xlink:href="#DejaVuSans-6b" x="52.099609"/>
       <use xlink:href="#DejaVuSans-6f" x="106.384766"/>
       <use xlink:href="#DejaVuSans-73" x="167.566406"/>
       <use xlink:href="#DejaVuSans-3a" x="219.666016"/>
       <use xlink:href="#DejaVuSans-64" x="253.357422"/>
       <use xlink:href="#DejaVuSans-65" x="316.833984"/>
       <use xlink:href="#DejaVuSans-66" x="378.357422"/>
       <use xlink:href="#DejaVuSans-69" x="413.5625"/>
       <use xlink:href="#DejaVuSans-6e" x="441.345703"/>
       <use xlink:href="#DejaVuSans-69" x="504.724609"/>
       <use xlink:href="#DejaVuSans-74" x="532.507812"/>
       <use xlink:href="#DejaVuSans-69" x="571.716797"/>
       <use xlink:href="#DejaVuSans-6f" x="599.5"/>
       <use xlink:href="#DejaVuSans-6e" x="660.681641"/>
      </g>
     </g>
    </g>
    <g id="xtick_10">
     <g id="line2d_10">
      <g>
       <use xlink:href="#mb6ab41f78e" x="331.290083" y="576.997656" style="stroke: #000000; stroke-width: 0.8"/>
      </g>
     </g>
     <g id="text_10">
      <!-- imgt:hasProduct -->
      <g transform="translate(335.429145 706.690625) rotate(-90) scale(0.15 -0.15)">
       <use xlink:href="#DejaVuSans-69"/>
       <use xlink:href="#DejaVuSans-6d" x="27.783203"/>
       <use xlink:href="#DejaVuSans-67" x="125.195312"/>
       <use xlink:href="#DejaVuSans-74" x="188.671875"/>
       <use xlink:href="#DejaVuSans-3a" x="227.880859"/>
       <use xlink:href="#DejaVuSans-68" x="261.572266"/>
       <use xlink:href="#DejaVuSans-61" x="324.951172"/>
       <use xlink:href="#DejaVuSans-73" x="386.230469"/>
       <use xlink:href="#DejaVuSans-50" x="438.330078"/>
       <use xlink:href="#DejaVuSans-72" x="496.882812"/>
       <use xlink:href="#DejaVuSans-6f" x="535.746094"/>
       <use xlink:href="#DejaVuSans-64" x="596.927734"/>
       <use xlink:href="#DejaVuSans-75" x="660.404297"/>
       <use xlink:href="#DejaVuSans-63" x="723.783203"/>
       <use xlink:href="#DejaVuSans-74" x="778.763672"/>
      </g>
     </g>
    </g>
    <g id="xtick_11">
     <g id="line2d_11">
      <g>
       <use xlink:href="#mb6ab41f78e" x="356.909917" y="576.997656" style="stroke: #000000; stroke-width: 0.8"/>
      </g>
     </g>
     <g id="text_11">
      <!-- imgt:isProductOf -->
      <g transform="translate(361.04898 709.247656) rotate(-90) scale(0.15 -0.15)">
       <use xlink:href="#DejaVuSans-69"/>
       <use xlink:href="#DejaVuSans-6d" x="27.783203"/>
       <use xlink:href="#DejaVuSans-67" x="125.195312"/>
       <use xlink:href="#DejaVuSans-74" x="188.671875"/>
       <use xlink:href="#DejaVuSans-3a" x="227.880859"/>
       <use xlink:href="#DejaVuSans-69" x="261.572266"/>
       <use xlink:href="#DejaVuSans-73" x="289.355469"/>
       <use xlink:href="#DejaVuSans-50" x="341.455078"/>
       <use xlink:href="#DejaVuSans-72" x="400.007812"/>
       <use xlink:href="#DejaVuSans-6f" x="438.871094"/>
       <use xlink:href="#DejaVuSans-64" x="500.052734"/>
       <use xlink:href="#DejaVuSans-75" x="563.529297"/>
       <use xlink:href="#DejaVuSans-63" x="626.908203"/>
       <use xlink:href="#DejaVuSans-74" x="681.888672"/>
       <use xlink:href="#DejaVuSans-4f" x="721.097656"/>
       <use xlink:href="#DejaVuSans-66" x="799.808594"/>
      </g>
     </g>
    </g>
    <g id="xtick_12">
     <g id="line2d_12">
      <g>
       <use xlink:href="#mb6ab41f78e" x="382.529752" y="576.997656" style="stroke: #000000; stroke-width: 0.8"/>
      </g>
     </g>
     <g id="text_12">
      <!-- imgt:isTargetOf -->
      <g transform="translate(386.668815 698.717188) rotate(-90) scale(0.15 -0.15)">
       <defs>
        <path id="DejaVuSans-54" d="M -19 4666 
L 3928 4666 
L 3928 4134 
L 2272 4134 
L 2272 0 
L 1638 0 
L 1638 4134 
L -19 4134 
L -19 4666 
z
" transform="scale(0.015625)"/>
       </defs>
       <use xlink:href="#DejaVuSans-69"/>
       <use xlink:href="#DejaVuSans-6d" x="27.783203"/>
       <use xlink:href="#DejaVuSans-67" x="125.195312"/>
       <use xlink:href="#DejaVuSans-74" x="188.671875"/>
       <use xlink:href="#DejaVuSans-3a" x="227.880859"/>
       <use xlink:href="#DejaVuSans-69" x="261.572266"/>
       <use xlink:href="#DejaVuSans-73" x="289.355469"/>
       <use xlink:href="#DejaVuSans-54" x="341.455078"/>
       <use xlink:href="#DejaVuSans-61" x="386.039062"/>
       <use xlink:href="#DejaVuSans-72" x="447.318359"/>
       <use xlink:href="#DejaVuSans-67" x="486.681641"/>
       <use xlink:href="#DejaVuSans-65" x="550.158203"/>
       <use xlink:href="#DejaVuSans-74" x="611.681641"/>
       <use xlink:href="#DejaVuSans-4f" x="650.890625"/>
       <use xlink:href="#DejaVuSans-66" x="729.601562"/>
      </g>
     </g>
    </g>
    <g id="xtick_13">
     <g id="line2d_13">
      <g>
       <use xlink:href="#mb6ab41f78e" x="408.149587" y="576.997656" style="stroke: #000000; stroke-width: 0.8"/>
      </g>
     </g>
     <g id="text_13">
      <!-- sio:hasTarget -->
      <g transform="translate(412.288649 683.138281) rotate(-90) scale(0.15 -0.15)">
       <use xlink:href="#DejaVuSans-73"/>
       <use xlink:href="#DejaVuSans-69" x="52.099609"/>
       <use xlink:href="#DejaVuSans-6f" x="79.882812"/>
       <use xlink:href="#DejaVuSans-3a" x="141.064453"/>
       <use xlink:href="#DejaVuSans-68" x="174.755859"/>
       <use xlink:href="#DejaVuSans-61" x="238.134766"/>
       <use xlink:href="#DejaVuSans-73" x="299.414062"/>
       <use xlink:href="#DejaVuSans-54" x="351.513672"/>
       <use xlink:href="#DejaVuSans-61" x="396.097656"/>
       <use xlink:href="#DejaVuSans-72" x="457.376953"/>
       <use xlink:href="#DejaVuSans-67" x="496.740234"/>
       <use xlink:href="#DejaVuSans-65" x="560.216797"/>
       <use xlink:href="#DejaVuSans-74" x="621.740234"/>
      </g>
     </g>
    </g>
    <g id="xtick_14">
     <g id="line2d_14">
      <g>
       <use xlink:href="#mb6ab41f78e" x="433.769421" y="576.997656" style="stroke: #000000; stroke-width: 0.8"/>
      </g>
     </g>
     <g id="text_14">
      <!-- imgt:isProducedBy -->
      <g transform="translate(437.908484 724.200781) rotate(-90) scale(0.15 -0.15)">
       <defs>
        <path id="DejaVuSans-42" d="M 1259 2228 
L 1259 519 
L 2272 519 
Q 2781 519 3026 730 
Q 3272 941 3272 1375 
Q 3272 1813 3026 2020 
Q 2781 2228 2272 2228 
L 1259 2228 
z
M 1259 4147 
L 1259 2741 
L 2194 2741 
Q 2656 2741 2882 2914 
Q 3109 3088 3109 3444 
Q 3109 3797 2882 3972 
Q 2656 4147 2194 4147 
L 1259 4147 
z
M 628 4666 
L 2241 4666 
Q 2963 4666 3353 4366 
Q 3744 4066 3744 3513 
Q 3744 3084 3544 2831 
Q 3344 2578 2956 2516 
Q 3422 2416 3680 2098 
Q 3938 1781 3938 1306 
Q 3938 681 3513 340 
Q 3088 0 2303 0 
L 628 0 
L 628 4666 
z
" transform="scale(0.015625)"/>
       </defs>
       <use xlink:href="#DejaVuSans-69"/>
       <use xlink:href="#DejaVuSans-6d" x="27.783203"/>
       <use xlink:href="#DejaVuSans-67" x="125.195312"/>
       <use xlink:href="#DejaVuSans-74" x="188.671875"/>
       <use xlink:href="#DejaVuSans-3a" x="227.880859"/>
       <use xlink:href="#DejaVuSans-69" x="261.572266"/>
       <use xlink:href="#DejaVuSans-73" x="289.355469"/>
       <use xlink:href="#DejaVuSans-50" x="341.455078"/>
       <use xlink:href="#DejaVuSans-72" x="400.007812"/>
       <use xlink:href="#DejaVuSans-6f" x="438.871094"/>
       <use xlink:href="#DejaVuSans-64" x="500.052734"/>
       <use xlink:href="#DejaVuSans-75" x="563.529297"/>
       <use xlink:href="#DejaVuSans-63" x="626.908203"/>
       <use xlink:href="#DejaVuSans-65" x="681.888672"/>
       <use xlink:href="#DejaVuSans-64" x="743.412109"/>
       <use xlink:href="#DejaVuSans-42" x="806.888672"/>
       <use xlink:href="#DejaVuSans-79" x="875.492188"/>
      </g>
     </g>
    </g>
    <g id="xtick_15">
     <g id="line2d_15">
      <g>
       <use xlink:href="#mb6ab41f78e" x="459.389256" y="576.997656" style="stroke: #000000; stroke-width: 0.8"/>
      </g>
     </g>
     <g id="text_15">
      <!-- imgt:produces -->
      <g transform="translate(463.528319 692.082031) rotate(-90) scale(0.15 -0.15)">
       <defs>
        <path id="DejaVuSans-70" d="M 1159 525 
L 1159 -1331 
L 581 -1331 
L 581 3500 
L 1159 3500 
L 1159 2969 
Q 1341 3281 1617 3432 
Q 1894 3584 2278 3584 
Q 2916 3584 3314 3078 
Q 3713 2572 3713 1747 
Q 3713 922 3314 415 
Q 2916 -91 2278 -91 
Q 1894 -91 1617 61 
Q 1341 213 1159 525 
z
M 3116 1747 
Q 3116 2381 2855 2742 
Q 2594 3103 2138 3103 
Q 1681 3103 1420 2742 
Q 1159 2381 1159 1747 
Q 1159 1113 1420 752 
Q 1681 391 2138 391 
Q 2594 391 2855 752 
Q 3116 1113 3116 1747 
z
" transform="scale(0.015625)"/>
       </defs>
       <use xlink:href="#DejaVuSans-69"/>
       <use xlink:href="#DejaVuSans-6d" x="27.783203"/>
       <use xlink:href="#DejaVuSans-67" x="125.195312"/>
       <use xlink:href="#DejaVuSans-74" x="188.671875"/>
       <use xlink:href="#DejaVuSans-3a" x="227.880859"/>
       <use xlink:href="#DejaVuSans-70" x="261.572266"/>
       <use xlink:href="#DejaVuSans-72" x="325.048828"/>
       <use xlink:href="#DejaVuSans-6f" x="363.912109"/>
       <use xlink:href="#DejaVuSans-64" x="425.09375"/>
       <use xlink:href="#DejaVuSans-75" x="488.570312"/>
       <use xlink:href="#DejaVuSans-63" x="551.949219"/>
       <use xlink:href="#DejaVuSans-65" x="606.929688"/>
       <use xlink:href="#DejaVuSans-73" x="668.453125"/>
      </g>
     </g>
    </g>
    <g id="xtick_16">
     <g id="line2d_16">
      <g>
       <use xlink:href="#mb6ab41f78e" x="485.009091" y="576.997656" style="stroke: #000000; stroke-width: 0.8"/>
      </g>
     </g>
     <g id="text_16">
      <!-- obo:BFO_0000050 -->
      <g transform="translate(488.93956 721.9625) rotate(-90) scale(0.15 -0.15)">
       <defs>
        <path id="DejaVuSans-46" d="M 628 4666 
L 3309 4666 
L 3309 4134 
L 1259 4134 
L 1259 2759 
L 3109 2759 
L 3109 2228 
L 1259 2228 
L 1259 0 
L 628 0 
L 628 4666 
z
" transform="scale(0.015625)"/>
        <path id="DejaVuSans-30" d="M 2034 4250 
Q 1547 4250 1301 3770 
Q 1056 3291 1056 2328 
Q 1056 1369 1301 889 
Q 1547 409 2034 409 
Q 2525 409 2770 889 
Q 3016 1369 3016 2328 
Q 3016 3291 2770 3770 
Q 2525 4250 2034 4250 
z
M 2034 4750 
Q 2819 4750 3233 4129 
Q 3647 3509 3647 2328 
Q 3647 1150 3233 529 
Q 2819 -91 2034 -91 
Q 1250 -91 836 529 
Q 422 1150 422 2328 
Q 422 3509 836 4129 
Q 1250 4750 2034 4750 
z
" transform="scale(0.015625)"/>
        <path id="DejaVuSans-35" d="M 691 4666 
L 3169 4666 
L 3169 4134 
L 1269 4134 
L 1269 2991 
Q 1406 3038 1543 3061 
Q 1681 3084 1819 3084 
Q 2600 3084 3056 2656 
Q 3513 2228 3513 1497 
Q 3513 744 3044 326 
Q 2575 -91 1722 -91 
Q 1428 -91 1123 -41 
Q 819 9 494 109 
L 494 744 
Q 775 591 1075 516 
Q 1375 441 1709 441 
Q 2250 441 2565 725 
Q 2881 1009 2881 1497 
Q 2881 1984 2565 2268 
Q 2250 2553 1709 2553 
Q 1456 2553 1204 2497 
Q 953 2441 691 2322 
L 691 4666 
z
" transform="scale(0.015625)"/>
       </defs>
       <use xlink:href="#DejaVuSans-6f"/>
       <use xlink:href="#DejaVuSans-62" x="61.181641"/>
       <use xlink:href="#DejaVuSans-6f" x="124.658203"/>
       <use xlink:href="#DejaVuSans-3a" x="185.839844"/>
       <use xlink:href="#DejaVuSans-42" x="219.53125"/>
       <use xlink:href="#DejaVuSans-46" x="288.134766"/>
       <use xlink:href="#DejaVuSans-4f" x="345.654297"/>
       <use xlink:href="#DejaVuSans-5f" x="424.365234"/>
       <use xlink:href="#DejaVuSans-30" x="474.365234"/>
       <use xlink:href="#DejaVuSans-30" x="537.988281"/>
       <use xlink:href="#DejaVuSans-30" x="601.611328"/>
       <use xlink:href="#DejaVuSans-30" x="665.234375"/>
       <use xlink:href="#DejaVuSans-30" x="728.857422"/>
       <use xlink:href="#DejaVuSans-35" x="792.480469"/>
       <use xlink:href="#DejaVuSans-30" x="856.103516"/>
      </g>
     </g>
    </g>
    <g id="xtick_17">
     <g id="line2d_17">
      <g>
       <use xlink:href="#mb6ab41f78e" x="510.628926" y="576.997656" style="stroke: #000000; stroke-width: 0.8"/>
      </g>
     </g>
     <g id="text_17">
      <!-- obo:BFO_0000051 -->
      <g transform="translate(514.559394 721.9625) rotate(-90) scale(0.15 -0.15)">
       <defs>
        <path id="DejaVuSans-31" d="M 794 531 
L 1825 531 
L 1825 4091 
L 703 3866 
L 703 4441 
L 1819 4666 
L 2450 4666 
L 2450 531 
L 3481 531 
L 3481 0 
L 794 0 
L 794 531 
z
" transform="scale(0.015625)"/>
       </defs>
       <use xlink:href="#DejaVuSans-6f"/>
       <use xlink:href="#DejaVuSans-62" x="61.181641"/>
       <use xlink:href="#DejaVuSans-6f" x="124.658203"/>
       <use xlink:href="#DejaVuSans-3a" x="185.839844"/>
       <use xlink:href="#DejaVuSans-42" x="219.53125"/>
       <use xlink:href="#DejaVuSans-46" x="288.134766"/>
       <use xlink:href="#DejaVuSans-4f" x="345.654297"/>
       <use xlink:href="#DejaVuSans-5f" x="424.365234"/>
       <use xlink:href="#DejaVuSans-30" x="474.365234"/>
       <use xlink:href="#DejaVuSans-30" x="537.988281"/>
       <use xlink:href="#DejaVuSans-30" x="601.611328"/>
       <use xlink:href="#DejaVuSans-30" x="665.234375"/>
       <use xlink:href="#DejaVuSans-30" x="728.857422"/>
       <use xlink:href="#DejaVuSans-35" x="792.480469"/>
       <use xlink:href="#DejaVuSans-31" x="856.103516"/>
      </g>
     </g>
    </g>
    <g id="xtick_18">
     <g id="line2d_18">
      <g>
       <use xlink:href="#mb6ab41f78e" x="536.24876" y="576.997656" style="stroke: #000000; stroke-width: 0.8"/>
      </g>
     </g>
     <g id="text_18">
      <!-- imgt:imgt_link -->
      <g transform="translate(540.179229 691.439844) rotate(-90) scale(0.15 -0.15)">
       <use xlink:href="#DejaVuSans-69"/>
       <use xlink:href="#DejaVuSans-6d" x="27.783203"/>
       <use xlink:href="#DejaVuSans-67" x="125.195312"/>
       <use xlink:href="#DejaVuSans-74" x="188.671875"/>
       <use xlink:href="#DejaVuSans-3a" x="227.880859"/>
       <use xlink:href="#DejaVuSans-69" x="261.572266"/>
       <use xlink:href="#DejaVuSans-6d" x="289.355469"/>
       <use xlink:href="#DejaVuSans-67" x="386.767578"/>
       <use xlink:href="#DejaVuSans-74" x="450.244141"/>
       <use xlink:href="#DejaVuSans-5f" x="489.453125"/>
       <use xlink:href="#DejaVuSans-6c" x="539.453125"/>
       <use xlink:href="#DejaVuSans-69" x="567.236328"/>
       <use xlink:href="#DejaVuSans-6e" x="595.019531"/>
       <use xlink:href="#DejaVuSans-6b" x="658.398438"/>
      </g>
     </g>
    </g>
    <g id="xtick_19">
     <g id="line2d_19">
      <g>
       <use xlink:href="#mb6ab41f78e" x="561.868595" y="576.997656" style="stroke: #000000; stroke-width: 0.8"/>
      </g>
     </g>
     <g id="text_19">
      <!-- imgt:hasMabReceptor -->
      <g transform="translate(566.007658 748.603906) rotate(-90) scale(0.15 -0.15)">
       <defs>
        <path id="DejaVuSans-4d" d="M 628 4666 
L 1569 4666 
L 2759 1491 
L 3956 4666 
L 4897 4666 
L 4897 0 
L 4281 0 
L 4281 4097 
L 3078 897 
L 2444 897 
L 1241 4097 
L 1241 0 
L 628 0 
L 628 4666 
z
" transform="scale(0.015625)"/>
        <path id="DejaVuSans-52" d="M 2841 2188 
Q 3044 2119 3236 1894 
Q 3428 1669 3622 1275 
L 4263 0 
L 3584 0 
L 2988 1197 
Q 2756 1666 2539 1819 
Q 2322 1972 1947 1972 
L 1259 1972 
L 1259 0 
L 628 0 
L 628 4666 
L 2053 4666 
Q 2853 4666 3247 4331 
Q 3641 3997 3641 3322 
Q 3641 2881 3436 2590 
Q 3231 2300 2841 2188 
z
M 1259 4147 
L 1259 2491 
L 2053 2491 
Q 2509 2491 2742 2702 
Q 2975 2913 2975 3322 
Q 2975 3731 2742 3939 
Q 2509 4147 2053 4147 
L 1259 4147 
z
" transform="scale(0.015625)"/>
       </defs>
       <use xlink:href="#DejaVuSans-69"/>
       <use xlink:href="#DejaVuSans-6d" x="27.783203"/>
       <use xlink:href="#DejaVuSans-67" x="125.195312"/>
       <use xlink:href="#DejaVuSans-74" x="188.671875"/>
       <use xlink:href="#DejaVuSans-3a" x="227.880859"/>
       <use xlink:href="#DejaVuSans-68" x="261.572266"/>
       <use xlink:href="#DejaVuSans-61" x="324.951172"/>
       <use xlink:href="#DejaVuSans-73" x="386.230469"/>
       <use xlink:href="#DejaVuSans-4d" x="438.330078"/>
       <use xlink:href="#DejaVuSans-61" x="524.609375"/>
       <use xlink:href="#DejaVuSans-62" x="585.888672"/>
       <use xlink:href="#DejaVuSans-52" x="649.365234"/>
       <use xlink:href="#DejaVuSans-65" x="714.347656"/>
       <use xlink:href="#DejaVuSans-63" x="775.871094"/>
       <use xlink:href="#DejaVuSans-65" x="830.851562"/>
       <use xlink:href="#DejaVuSans-70" x="892.375"/>
       <use xlink:href="#DejaVuSans-74" x="955.851562"/>
       <use xlink:href="#DejaVuSans-6f" x="995.060547"/>
       <use xlink:href="#DejaVuSans-72" x="1056.242188"/>
      </g>
     </g>
    </g>
    <g id="xtick_20">
     <g id="line2d_20">
      <g>
       <use xlink:href="#mb6ab41f78e" x="587.48843" y="576.997656" style="stroke: #000000; stroke-width: 0.8"/>
      </g>
     </g>
     <g id="text_20">
      <!-- imgt:hasMolecularComponent -->
      <g transform="translate(591.627492 809.628125) rotate(-90) scale(0.15 -0.15)">
       <use xlink:href="#DejaVuSans-69"/>
       <use xlink:href="#DejaVuSans-6d" x="27.783203"/>
       <use xlink:href="#DejaVuSans-67" x="125.195312"/>
       <use xlink:href="#DejaVuSans-74" x="188.671875"/>
       <use xlink:href="#DejaVuSans-3a" x="227.880859"/>
       <use xlink:href="#DejaVuSans-68" x="261.572266"/>
       <use xlink:href="#DejaVuSans-61" x="324.951172"/>
       <use xlink:href="#DejaVuSans-73" x="386.230469"/>
       <use xlink:href="#DejaVuSans-4d" x="438.330078"/>
       <use xlink:href="#DejaVuSans-6f" x="524.609375"/>
       <use xlink:href="#DejaVuSans-6c" x="585.791016"/>
       <use xlink:href="#DejaVuSans-65" x="613.574219"/>
       <use xlink:href="#DejaVuSans-63" x="675.097656"/>
       <use xlink:href="#DejaVuSans-75" x="730.078125"/>
       <use xlink:href="#DejaVuSans-6c" x="793.457031"/>
       <use xlink:href="#DejaVuSans-61" x="821.240234"/>
       <use xlink:href="#DejaVuSans-72" x="882.519531"/>
       <use xlink:href="#DejaVuSans-43" x="923.632812"/>
       <use xlink:href="#DejaVuSans-6f" x="993.457031"/>
       <use xlink:href="#DejaVuSans-6d" x="1054.638672"/>
       <use xlink:href="#DejaVuSans-70" x="1152.050781"/>
       <use xlink:href="#DejaVuSans-6f" x="1215.527344"/>
       <use xlink:href="#DejaVuSans-6e" x="1276.708984"/>
       <use xlink:href="#DejaVuSans-65" x="1340.087891"/>
       <use xlink:href="#DejaVuSans-6e" x="1401.611328"/>
       <use xlink:href="#DejaVuSans-74" x="1464.990234"/>
      </g>
     </g>
    </g>
    <g id="text_21">
     <!-- Properties -->
     <g transform="translate(306.200391 18.597656) scale(0.15 -0.15)">
      <use xlink:href="#DejaVuSans-50"/>
      <use xlink:href="#DejaVuSans-72" x="58.552734"/>
      <use xlink:href="#DejaVuSans-6f" x="97.416016"/>
      <use xlink:href="#DejaVuSans-70" x="158.597656"/>
      <use xlink:href="#DejaVuSans-65" x="222.074219"/>
      <use xlink:href="#DejaVuSans-72" x="283.597656"/>
      <use xlink:href="#DejaVuSans-74" x="324.710938"/>
      <use xlink:href="#DejaVuSans-69" x="363.919922"/>
      <use xlink:href="#DejaVuSans-65" x="391.703125"/>
      <use xlink:href="#DejaVuSans-73" x="453.226562"/>
     </g>
    </g>
   </g>
   <g id="matplotlib.axis_2">
    <g id="ytick_1">
     <g id="line2d_21">
      <defs>
       <path id="m3416c9f4f9" d="M 0 0 
L -3.5 0 
" style="stroke: #000000; stroke-width: 0.8"/>
      </defs>
      <g>
       <use xlink:href="#m3416c9f4f9" x="65.1" y="576.997656" style="stroke: #000000; stroke-width: 0.8"/>
      </g>
     </g>
     <g id="text_22">
      <!-- 0 -->
      <g transform="translate(45.375 584.596094) scale(0.2 -0.2)">
       <use xlink:href="#DejaVuSans-30"/>
      </g>
     </g>
    </g>
    <g id="ytick_2">
     <g id="line2d_22">
      <g>
       <use xlink:href="#m3416c9f4f9" x="65.1" y="507.285483" style="stroke: #000000; stroke-width: 0.8"/>
      </g>
     </g>
     <g id="text_23">
      <!-- 500 -->
      <g transform="translate(19.925 514.883921) scale(0.2 -0.2)">
       <use xlink:href="#DejaVuSans-35"/>
       <use xlink:href="#DejaVuSans-30" x="63.623047"/>
       <use xlink:href="#DejaVuSans-30" x="127.246094"/>
      </g>
     </g>
    </g>
    <g id="ytick_3">
     <g id="line2d_23">
      <g>
       <use xlink:href="#m3416c9f4f9" x="65.1" y="437.57331" style="stroke: #000000; stroke-width: 0.8"/>
      </g>
     </g>
     <g id="text_24">
      <!-- 1000 -->
      <g transform="translate(7.2 445.171747) scale(0.2 -0.2)">
       <use xlink:href="#DejaVuSans-31"/>
       <use xlink:href="#DejaVuSans-30" x="63.623047"/>
       <use xlink:href="#DejaVuSans-30" x="127.246094"/>
       <use xlink:href="#DejaVuSans-30" x="190.869141"/>
      </g>
     </g>
    </g>
    <g id="ytick_4">
     <g id="line2d_24">
      <g>
       <use xlink:href="#m3416c9f4f9" x="65.1" y="367.861137" style="stroke: #000000; stroke-width: 0.8"/>
      </g>
     </g>
     <g id="text_25">
      <!-- 1500 -->
      <g transform="translate(7.2 375.459574) scale(0.2 -0.2)">
       <use xlink:href="#DejaVuSans-31"/>
       <use xlink:href="#DejaVuSans-35" x="63.623047"/>
       <use xlink:href="#DejaVuSans-30" x="127.246094"/>
       <use xlink:href="#DejaVuSans-30" x="190.869141"/>
      </g>
     </g>
    </g>
    <g id="ytick_5">
     <g id="line2d_25">
      <g>
       <use xlink:href="#m3416c9f4f9" x="65.1" y="298.148963" style="stroke: #000000; stroke-width: 0.8"/>
      </g>
     </g>
     <g id="text_26">
      <!-- 2000 -->
      <g transform="translate(7.2 305.747401) scale(0.2 -0.2)">
       <defs>
        <path id="DejaVuSans-32" d="M 1228 531 
L 3431 531 
L 3431 0 
L 469 0 
L 469 531 
Q 828 903 1448 1529 
Q 2069 2156 2228 2338 
Q 2531 2678 2651 2914 
Q 2772 3150 2772 3378 
Q 2772 3750 2511 3984 
Q 2250 4219 1831 4219 
Q 1534 4219 1204 4116 
Q 875 4013 500 3803 
L 500 4441 
Q 881 4594 1212 4672 
Q 1544 4750 1819 4750 
Q 2544 4750 2975 4387 
Q 3406 4025 3406 3419 
Q 3406 3131 3298 2873 
Q 3191 2616 2906 2266 
Q 2828 2175 2409 1742 
Q 1991 1309 1228 531 
z
" transform="scale(0.015625)"/>
       </defs>
       <use xlink:href="#DejaVuSans-32"/>
       <use xlink:href="#DejaVuSans-30" x="63.623047"/>
       <use xlink:href="#DejaVuSans-30" x="127.246094"/>
       <use xlink:href="#DejaVuSans-30" x="190.869141"/>
      </g>
     </g>
    </g>
    <g id="ytick_6">
     <g id="line2d_26">
      <g>
       <use xlink:href="#m3416c9f4f9" x="65.1" y="228.43679" style="stroke: #000000; stroke-width: 0.8"/>
      </g>
     </g>
     <g id="text_27">
      <!-- 2500 -->
      <g transform="translate(7.2 236.035228) scale(0.2 -0.2)">
       <use xlink:href="#DejaVuSans-32"/>
       <use xlink:href="#DejaVuSans-35" x="63.623047"/>
       <use xlink:href="#DejaVuSans-30" x="127.246094"/>
       <use xlink:href="#DejaVuSans-30" x="190.869141"/>
      </g>
     </g>
    </g>
    <g id="ytick_7">
     <g id="line2d_27">
      <g>
       <use xlink:href="#m3416c9f4f9" x="65.1" y="158.724617" style="stroke: #000000; stroke-width: 0.8"/>
      </g>
     </g>
     <g id="text_28">
      <!-- 3000 -->
      <g transform="translate(7.2 166.323054) scale(0.2 -0.2)">
       <defs>
        <path id="DejaVuSans-33" d="M 2597 2516 
Q 3050 2419 3304 2112 
Q 3559 1806 3559 1356 
Q 3559 666 3084 287 
Q 2609 -91 1734 -91 
Q 1441 -91 1130 -33 
Q 819 25 488 141 
L 488 750 
Q 750 597 1062 519 
Q 1375 441 1716 441 
Q 2309 441 2620 675 
Q 2931 909 2931 1356 
Q 2931 1769 2642 2001 
Q 2353 2234 1838 2234 
L 1294 2234 
L 1294 2753 
L 1863 2753 
Q 2328 2753 2575 2939 
Q 2822 3125 2822 3475 
Q 2822 3834 2567 4026 
Q 2313 4219 1838 4219 
Q 1578 4219 1281 4162 
Q 984 4106 628 3988 
L 628 4550 
Q 988 4650 1302 4700 
Q 1616 4750 1894 4750 
Q 2613 4750 3031 4423 
Q 3450 4097 3450 3541 
Q 3450 3153 3228 2886 
Q 3006 2619 2597 2516 
z
" transform="scale(0.015625)"/>
       </defs>
       <use xlink:href="#DejaVuSans-33"/>
       <use xlink:href="#DejaVuSans-30" x="63.623047"/>
       <use xlink:href="#DejaVuSans-30" x="127.246094"/>
       <use xlink:href="#DejaVuSans-30" x="190.869141"/>
      </g>
     </g>
    </g>
    <g id="ytick_8">
     <g id="line2d_28">
      <g>
       <use xlink:href="#m3416c9f4f9" x="65.1" y="89.012444" style="stroke: #000000; stroke-width: 0.8"/>
      </g>
     </g>
     <g id="text_29">
      <!-- 3500 -->
      <g transform="translate(7.2 96.610881) scale(0.2 -0.2)">
       <use xlink:href="#DejaVuSans-33"/>
       <use xlink:href="#DejaVuSans-35" x="63.623047"/>
       <use xlink:href="#DejaVuSans-30" x="127.246094"/>
       <use xlink:href="#DejaVuSans-30" x="190.869141"/>
      </g>
     </g>
    </g>
   </g>
   <g id="patch_23">
    <path d="M 65.1 576.997656 
L 65.1 22.597656 
" style="fill: none; stroke: #000000; stroke-width: 0.8; stroke-linejoin: miter; stroke-linecap: square"/>
   </g>
   <g id="patch_24">
    <path d="M 623.1 576.997656 
L 623.1 22.597656 
" style="fill: none; stroke: #000000; stroke-width: 0.8; stroke-linejoin: miter; stroke-linecap: square"/>
   </g>
   <g id="patch_25">
    <path d="M 65.1 576.997656 
L 623.1 576.997656 
" style="fill: none; stroke: #000000; stroke-width: 0.8; stroke-linejoin: miter; stroke-linecap: square"/>
   </g>
   <g id="patch_26">
    <path d="M 65.1 22.597656 
L 623.1 22.597656 
" style="fill: none; stroke: #000000; stroke-width: 0.8; stroke-linejoin: miter; stroke-linecap: square"/>
   </g>
  </g>
 </g>
 <defs>
  <clipPath id="p00ade2db15">
   <rect x="65.1" y="22.597656" width="558" height="554.4"/>
  </clipPath>
 </defs>
</svg>
